####
#
#	OBJ File Generated by LightWave3D
#	LightWave3D OBJ Export v2.3
#
####
o RedPhoneChannelizer_Bridge.obj
mtllib RedPhoneChannelizer_Bridge.mtl
g default
v -0.692327 -0.466411 0.692327
v 0.692327 -0.466411 0.692327
v 0.692327 -0.466411 -0.692327
v -0.692327 -0.466411 -0.692327
v -0.692327 0.0108468 0.692327
v 0.692327 0.0108468 0.692327
v 0.692327 0.466411 -0.692327
v -0.692327 0.466411 -0.692327
v 0.400154 -0.356942 -1.17067
v 0.678374 -0.356942 -1.17067
v 0.678374 -0.0483783 -0.69195
v 0.400154 -0.0483783 -0.69195
v 0.400154 -0.466443 -1.17067
v 0.678374 -0.466443 -1.17067
v 0.678374 -0.466443 -0.69195
v 0.400154 -0.466443 -0.69195
v 0.443416 -0.407064 -0.729289
v 0.632162 -0.407064 -0.729289
v -0.398092 -0.356942 -1.17067
v -0.676312 -0.356942 -1.17067
v -0.676312 -0.0483783 -0.69195
v -0.398092 -0.0483783 -0.69195
v -0.398092 -0.466443 -1.17067
v -0.676312 -0.466443 -1.17067
v -0.676312 -0.466443 -0.69195
v -0.398092 -0.466443 -0.69195
v -0.441355 -0.407064 -0.729289
v -0.630101 -0.407064 -0.729289
v 0.632162 -0.407064 -1.17067
v 0.443416 -0.407064 -1.17067
v 0.632162 -0.356942 -1.17067
v 0.632162 -0.0581993 -0.729289
v 0.443416 -0.0581993 -0.729289
v 0.443416 -0.356942 -1.17067
v -0.630101 -0.407064 -1.17067
v -0.441355 -0.407064 -1.17067
v -0.630101 -0.356942 -1.17067
v -0.630101 -0.0581993 -0.729289
v -0.441355 -0.0581993 -0.729289
v -0.441355 -0.356942 -1.17067
v 0.40526 -0.356942 1.17067
v 0.68348 -0.356942 1.17067
v 0.68348 -0.0483783 0.69195
v 0.40526 -0.0483783 0.69195
v 0.40526 -0.466443 1.17067
v 0.68348 -0.466443 1.17067
v 0.68348 -0.466443 0.69195
v 0.40526 -0.466443 0.69195
v 0.448522 -0.407064 0.729289
v 0.637268 -0.407064 0.729289
v -0.40045 -0.356942 1.17067
v -0.67867 -0.356942 1.17067
v -0.67867 -0.0483783 0.69195
v -0.40045 -0.0483783 0.69195
v -0.40045 -0.466443 1.17067
v -0.67867 -0.466443 1.17067
v -0.67867 -0.466443 0.69195
v -0.40045 -0.466443 0.69195
v -0.443712 -0.407064 0.729289
v -0.632458 -0.407064 0.729289
v 0.637268 -0.407064 1.17067
v 0.448522 -0.407064 1.17067
v 0.637268 -0.356942 1.17067
v 0.637268 -0.0581993 0.729289
v 0.448522 -0.0581993 0.729289
v 0.448522 -0.356942 1.17067
v -0.632458 -0.407064 1.17067
v -0.443712 -0.407064 1.17067
v -0.632458 -0.356942 1.17067
v -0.632458 -0.0581993 0.729289
v -0.443712 -0.0581993 0.729289
v -0.443712 -0.356942 1.17067
vt 0.0152949 0.490935
vt 0.0152949 0.998341
vt 0.0656372 0.291486
vt 0.0656372 0.362506
vt 0.0656372 0.374343
vt 0.0656372 0.445363
vt 0.0665578 0.208629
vt 0.0665578 0.279649
vt 0.0674784 0.0158212
vt 0.0674784 0.196266
vt 0.0840498 0.291486
vt 0.0840498 0.362506
vt 0.0840498 0.374343
vt 0.0840498 0.445363
vt 0.0932563 0.374343
vt 0.0932563 0.445363
vt 0.0945714 0.291092
vt 0.0945714 0.335282
vt 0.107477 0.0285777
vt 0.107477 0.0854296
vt 0.110748 0.208629
vt 0.110748 0.279649
vt 0.111669 0.374343
vt 0.111669 0.445363
vt 0.120875 0.374343
vt 0.120875 0.445363
vt 0.121796 0.208629
vt 0.121796 0.279649
vt 0.139288 0.374343
vt 0.139288 0.445363
vt 0.149415 0.385523
vt 0.149415 0.418139
vt 0.156286 0.385523
vt 0.156286 0.417101
vt 0.165592 0.291092
vt 0.165592 0.29744
vt 0.165986 0.208629
vt 0.165986 0.279649
vt 0.177428 0.208234
vt 0.177428 0.252425
vt 0.186265 0.385523
vt 0.186265 0.417101
vt 0.193605 0.385523
vt 0.193605 0.418139
vt 0.204653 0.373949
vt 0.204653 0.418139
vt 0.247923 0.0158212
vt 0.247923 0.196266
vt 0.248449 0.208234
vt 0.248449 0.219809
vt 0.248844 0.373949
vt 0.248844 0.418139
vt 0.258971 0.373949
vt 0.258971 0.418139
vt 0.260285 0.152996
vt 0.260285 0.16457
vt 0.260285 0.208234
vt 0.260285 0.252425
vt 0.277383 0.373949
vt 0.277383 0.418139
vt 0.28659 0.373949
vt 0.28659 0.418139
vt 0.305002 0.373949
vt 0.305002 0.418139
vt 0.314209 0.373949
vt 0.314209 0.418139
vt 0.331306 0.152996
vt 0.331306 0.197187
vt 0.331306 0.208234
vt 0.331306 0.214583
vt 0.332621 0.373949
vt 0.332621 0.418139
vt 0.343143 0.208234
vt 0.343143 0.252425
vt 0.343143 0.291092
vt 0.343143 0.29744
vt 0.344444 0.248918
vt 0.344444 0.35966
vt 0.356649 0.0285777
vt 0.356649 0.245635
vt 0.357769 0.0213712
vt 0.357769 0.246719
vt 0.414164 0.208234
vt 0.414164 0.214583
vt 0.414164 0.291092
vt 0.414164 0.335282
vt 0.425605 0.291092
vt 0.425605 0.335282
vt 0.426 0.208234
vt 0.426 0.252425
vt 0.469796 0.291092
vt 0.469796 0.335282
vt 0.497021 0.208234
vt 0.497021 0.214583
vt 0.638203 0.265584
vt 0.638203 0.376325
vt 0.649464 0.490935
vt 0.649464 0.998341
vt 0.655556 0.248918
vt 0.655556 0.465368
vt 0.663514 0.307632
vt 0.663514 0.524082
vt 0.670084 0.763126
vt 0.67619 0.343537
vt 0.67619 0.465986
vt 0.676871 0.247619
vt 0.676871 0.32381
vt 0.681931 0.773947
vt 0.718383 0.620269
vt 0.718383 0.631215
vt 0.72381 0.72381
vt 0.72381 0.743766
vt 0.72381 0.8
vt 0.733135 0.485714
vt 0.733135 0.561905
vt 0.733619 0.773947
vt 0.733619 0.783082
vt 0.733619 0.837526
vt 0.735657 0.734631
vt 0.735657 0.743766
vt 0.735657 0.79821
vt 0.746274 0.763126
vt 0.746274 0.783082
vt 0.746274 0.839316
vt 0.752381 0.343537
vt 0.752381 0.465986
vt 0.771429 0.343537
vt 0.771429 0.465986
vt 0.772109 0.485714
vt 0.772109 0.50567
vt 0.772109 0.580952
vt 0.772109 0.591899
vt 0.787345 0.734631
vt 0.787345 0.743766
vt 0.787345 0.79821
vt 0.79932 0.247619
vt 0.79932 0.267575
vt 0.8 0.72381
vt 0.8 0.743766
vt 0.8 0.8
vt 0.819048 0.72381
vt 0.819048 0.8
vt 0.819728 0.247619
vt 0.819728 0.32381
vt 0.840832 0.620269
vt 0.840832 0.696459
vt 0.847619 0.343537
vt 0.847619 0.465986
vt 0.855584 0.485714
vt 0.855584 0.50567
vt 0.86124 0.620269
vt 0.86124 0.631215
vt 0.861977 0.852753
vt 0.861977 0.872709
vt 0.867347 0.342857
vt 0.867347 0.362813
vt 0.873824 0.863574
vt 0.873824 0.872709
vt 0.894558 0.485714
vt 0.894558 0.561905
vt 0.894558 0.580952
vt 0.894558 0.657143
vt 0.895238 0.72381
vt 0.895238 0.8
vt 0.914286 0.485714
vt 0.914286 0.50567
vt 0.914286 0.561905
vt 0.914286 0.580952
vt 0.914286 0.600909
vt 0.914286 0.657143
vt 0.914286 0.72381
vt 0.914286 0.8
vt 0.926941 0.496536
vt 0.926941 0.50567
vt 0.926941 0.560115
vt 0.926941 0.591774
vt 0.926941 0.600909
vt 0.926941 0.655353
vt 0.942177 0.247619
vt 0.942177 0.267575
vt 0.949314 0.265584
vt 0.949314 0.376325
vt 0.960317 0.247619
vt 0.960317 0.32381
vt 0.974626 0.307632
vt 0.974626 0.524082
vt 0.978629 0.496536
vt 0.978629 0.50567
vt 0.978629 0.560115
vt 0.978629 0.591774
vt 0.978629 0.600909
vt 0.978629 0.655353
vt 0.983689 0.620269
vt 0.983689 0.696459
vt 0.989796 0.342857
vt 0.989796 0.419048
vt 0.990476 0.485714
vt 0.990476 0.50567
vt 0.990476 0.561905
vt 0.990476 0.580952
vt 0.990476 0.600909
vt 0.990476 0.657143
vt 0.990476 0.72381
vt 0.990476 0.8
vt 0.990849 0.0213712
vt 0.990849 0.461826
vt 0.992063 0.247619
vt 0.992063 0.32381
vn -0.57735 -0.57735 -0.57735
vn 0.57735 -0.57735 -0.57735
vn 0.57735 -0.57735 0.57735
vn -0.57735 -0.57735 0.57735
vn 0.57735 -0.57735 0.57735
vn 0.525222 0.498912 0.689368
vn -0.525222 0.498912 0.689368
vn -0.57735 -0.57735 0.57735
vn 0.57735 -0.57735 -0.57735
vn 0.648894 0.616389 -0.446096
vn 0.525222 0.498912 0.689368
vn 0.57735 -0.57735 0.57735
vn -0.648894 0.616389 -0.446096
vn 0.648894 0.616389 -0.446096
vn 0.57735 -0.57735 -0.57735
vn -0.57735 -0.57735 -0.57735
vn -0.525222 0.498912 0.689368
vn -0.648894 0.616389 -0.446096
vn -0.57735 -0.57735 -0.57735
vn -0.57735 -0.57735 0.57735
vn 0.525222 0.498912 0.689368
vn 0.648894 0.616389 -0.446096
vn -0.648894 0.616389 -0.446096
vn -0.525222 0.498912 0.689368
vn 0.571842 0.814109 0.101116
vn 0.57735 -0.57735 0.57735
vn 0.408248 -0.408248 -0.816497
vn 0.336993 0.442324 -0.831135
vn -0.57735 -0.57735 0.57735
vn 0.57735 -0.57735 0.57735
vn 0.571842 0.814109 0.101116
vn -0.419081 0.907891 -0.0102162
vn -0.301511 -0.301511 -0.904534
vn -0.57735 -0.57735 0.57735
vn -0.419081 0.907891 -0.0102162
vn -0.341108 0.441133 -0.830088
vn 0.408248 -0.408248 -0.816497
vn 0.57735 -0.57735 0.57735
vn -0.57735 -0.57735 0.57735
vn -0.301511 -0.301511 -0.904534
vn 0.301511 0.301511 -0.904534
vn 0.492603 0.407945 -0.768715
vn 0.205052 0.728578 -0.65355
vn 0.57735 0.57735 -0.57735
vn 0.205052 0.728578 -0.65355
vn -0.1672 0.798097 -0.578866
vn -0.57735 0.57735 -0.57735
vn 0.57735 0.57735 -0.57735
vn -0.235702 0.235702 -0.942809
vn 0.301511 0.301511 -0.904534
vn 0.57735 0.57735 -0.57735
vn -0.57735 0.57735 -0.57735
vn -0.1672 0.798097 -0.578866
vn -0.492603 0.407945 -0.768715
vn -0.235702 0.235702 -0.942809
vn -0.57735 0.57735 -0.57735
vn -0.408248 -0.408248 -0.816497
vn -0.57735 -0.57735 0.57735
vn -0.571843 0.814107 0.101116
vn -0.336994 0.442324 -0.831134
vn -0.571843 0.814107 0.101116
vn -0.57735 -0.57735 0.57735
vn 0.57735 -0.57735 0.57735
vn 0.419079 0.907892 -0.0102165
vn 0.419079 0.907892 -0.0102165
vn 0.57735 -0.57735 0.57735
vn 0.301511 -0.301511 -0.904534
vn 0.341107 0.441133 -0.830089
vn 0.57735 -0.57735 0.57735
vn -0.57735 -0.57735 0.57735
vn -0.408248 -0.408248 -0.816497
vn 0.301511 -0.301511 -0.904534
vn -0.205053 0.728578 -0.65355
vn -0.492603 0.407945 -0.768715
vn -0.301511 0.301511 -0.904534
vn -0.57735 0.57735 -0.57735
vn 0.57735 0.57735 -0.57735
vn 0.167199 0.798097 -0.578866
vn -0.205053 0.728578 -0.65355
vn -0.57735 0.57735 -0.57735
vn -0.57735 0.57735 -0.57735
vn -0.301511 0.301511 -0.904534
vn 0.235702 0.235702 -0.942809
vn 0.57735 0.57735 -0.57735
vn 0.235702 0.235702 -0.942809
vn 0.492603 0.407945 -0.768715
vn 0.167199 0.798097 -0.578866
vn 0.57735 0.57735 -0.57735
vn 0.408248 -0.408248 0.816497
vn 0.57735 -0.57735 -0.57735
vn 0.571842 0.814109 -0.101116
vn 0.336993 0.442324 0.831135
vn 0.571842 0.814109 -0.101116
vn 0.57735 -0.57735 -0.57735
vn -0.57735 -0.57735 -0.57735
vn -0.419081 0.907891 0.0102162
vn -0.419081 0.907891 0.0102162
vn -0.57735 -0.57735 -0.57735
vn -0.301511 -0.301511 0.904534
vn -0.341108 0.441133 0.830088
vn -0.57735 -0.57735 -0.57735
vn 0.57735 -0.57735 -0.57735
vn 0.408248 -0.408248 0.816497
vn -0.301511 -0.301511 0.904534
vn 0.205052 0.728578 0.65355
vn 0.492603 0.407945 0.768715
vn 0.301511 0.301511 0.904534
vn 0.57735 0.57735 0.57735
vn -0.57735 0.57735 0.57735
vn -0.1672 0.798097 0.578866
vn 0.205052 0.728578 0.65355
vn 0.57735 0.57735 0.57735
vn 0.57735 0.57735 0.57735
vn 0.301511 0.301511 0.904534
vn -0.235702 0.235702 0.942809
vn -0.57735 0.57735 0.57735
vn -0.235702 0.235702 0.942809
vn -0.492603 0.407945 0.768715
vn -0.1672 0.798097 0.578866
vn -0.57735 0.57735 0.57735
vn -0.571842 0.814109 -0.101116
vn -0.57735 -0.57735 -0.57735
vn -0.408248 -0.408248 0.816497
vn -0.336993 0.442324 0.831135
vn 0.57735 -0.57735 -0.57735
vn -0.57735 -0.57735 -0.57735
vn -0.571842 0.814109 -0.101116
vn 0.419081 0.907891 0.0102162
vn 0.301511 -0.301511 0.904534
vn 0.57735 -0.57735 -0.57735
vn 0.419081 0.907891 0.0102162
vn 0.341108 0.441133 0.830088
vn -0.408248 -0.408248 0.816497
vn -0.57735 -0.57735 -0.57735
vn 0.57735 -0.57735 -0.57735
vn 0.301511 -0.301511 0.904534
vn -0.301511 0.301511 0.904534
vn -0.492603 0.407945 0.768715
vn -0.205052 0.728578 0.65355
vn -0.57735 0.57735 0.57735
vn -0.205052 0.728578 0.65355
vn 0.1672 0.798097 0.578866
vn 0.57735 0.57735 0.57735
vn -0.57735 0.57735 0.57735
vn 0.235702 0.235702 0.942809
vn -0.301511 0.301511 0.904534
vn -0.57735 0.57735 0.57735
vn 0.57735 0.57735 0.57735
vn 0.1672 0.798097 0.578866
vn 0.492603 0.407945 0.768715
vn 0.235702 0.235702 0.942809
vn 0.57735 0.57735 0.57735
vn -0.1672 0.798097 -0.578866
vn 0.336993 0.442324 -0.831135
vn -0.492603 0.407945 -0.768715
vn -0.1672 0.798097 -0.578866
vn 0.571842 0.814109 0.101116
vn 0.336993 0.442324 -0.831135
vn -0.419081 0.907891 -0.0102162
vn 0.571842 0.814109 0.101116
vn -0.1672 0.798097 -0.578866
vn 0.205052 0.728578 -0.65355
vn 0.492603 0.407945 -0.768715
vn -0.341108 0.441133 -0.830088
vn -0.419081 0.907891 -0.0102162
vn 0.205052 0.728578 -0.65355
vn -0.341108 0.441133 -0.830088
vn -0.419081 0.907891 -0.0102162
vn -0.1672 0.798097 -0.578866
vn 0.205052 0.728578 -0.65355
vn -0.492603 0.407945 -0.768715
vn 0.336993 0.442324 -0.831135
vn -0.235702 0.235702 -0.942809
vn -0.341108 0.441133 -0.830088
vn 0.492603 0.407945 -0.768715
vn 0.301511 0.301511 -0.904534
vn -0.235702 0.235702 -0.942809
vn 0.336993 0.442324 -0.831135
vn 0.408248 -0.408248 -0.816497
vn -0.235702 0.235702 -0.942809
vn 0.408248 -0.408248 -0.816497
vn -0.301511 -0.301511 -0.904534
vn 0.301511 0.301511 -0.904534
vn -0.235702 0.235702 -0.942809
vn -0.301511 -0.301511 -0.904534
vn -0.341108 0.441133 -0.830088
vn 0.301511 0.301511 -0.904534
vn -0.301511 -0.301511 -0.904534
vn -0.336994 0.442324 -0.831134
vn 0.167199 0.798097 -0.578866
vn 0.492603 0.407945 -0.768715
vn -0.571843 0.814107 0.101116
vn 0.167199 0.798097 -0.578866
vn -0.336994 0.442324 -0.831134
vn -0.571843 0.814107 0.101116
vn 0.419079 0.907892 -0.0102165
vn 0.167199 0.798097 -0.578866
vn -0.492603 0.407945 -0.768715
vn -0.205053 0.728578 -0.65355
vn 0.341107 0.441133 -0.830089
vn 0.167199 0.798097 -0.578866
vn 0.419079 0.907892 -0.0102165
vn -0.205053 0.728578 -0.65355
vn -0.205053 0.728578 -0.65355
vn 0.419079 0.907892 -0.0102165
vn 0.341107 0.441133 -0.830089
vn -0.336994 0.442324 -0.831134
vn 0.492603 0.407945 -0.768715
vn 0.235702 0.235702 -0.942809
vn -0.492603 0.407945 -0.768715
vn 0.341107 0.441133 -0.830089
vn -0.301511 0.301511 -0.904534
vn -0.336994 0.442324 -0.831134
vn 0.235702 0.235702 -0.942809
vn -0.408248 -0.408248 -0.816497
vn -0.408248 -0.408248 -0.816497
vn 0.235702 0.235702 -0.942809
vn 0.301511 -0.301511 -0.904534
vn -0.301511 0.301511 -0.904534
vn 0.341107 0.441133 -0.830089
vn 0.301511 -0.301511 -0.904534
vn 0.235702 0.235702 -0.942809
vn -0.301511 0.301511 -0.904534
vn 0.301511 -0.301511 -0.904534
vn 0.336993 0.442324 0.831135
vn -0.1672 0.798097 0.578866
vn -0.492603 0.407945 0.768715
vn 0.571842 0.814109 -0.101116
vn -0.1672 0.798097 0.578866
vn 0.336993 0.442324 0.831135
vn 0.571842 0.814109 -0.101116
vn -0.419081 0.907891 0.0102162
vn -0.1672 0.798097 0.578866
vn 0.492603 0.407945 0.768715
vn 0.205052 0.728578 0.65355
vn -0.341108 0.441133 0.830088
vn -0.1672 0.798097 0.578866
vn -0.419081 0.907891 0.0102162
vn 0.205052 0.728578 0.65355
vn 0.205052 0.728578 0.65355
vn -0.419081 0.907891 0.0102162
vn -0.341108 0.441133 0.830088
vn 0.336993 0.442324 0.831135
vn -0.492603 0.407945 0.768715
vn -0.235702 0.235702 0.942809
vn 0.492603 0.407945 0.768715
vn -0.341108 0.441133 0.830088
vn 0.301511 0.301511 0.904534
vn 0.336993 0.442324 0.831135
vn -0.235702 0.235702 0.942809
vn 0.408248 -0.408248 0.816497
vn 0.408248 -0.408248 0.816497
vn -0.235702 0.235702 0.942809
vn -0.301511 -0.301511 0.904534
vn 0.301511 0.301511 0.904534
vn -0.341108 0.441133 0.830088
vn -0.301511 -0.301511 0.904534
vn -0.235702 0.235702 0.942809
vn 0.301511 0.301511 0.904534
vn -0.301511 -0.301511 0.904534
vn 0.1672 0.798097 0.578866
vn -0.336993 0.442324 0.831135
vn 0.492603 0.407945 0.768715
vn 0.1672 0.798097 0.578866
vn -0.571842 0.814109 -0.101116
vn -0.336993 0.442324 0.831135
vn 0.419081 0.907891 0.0102162
vn -0.571842 0.814109 -0.101116
vn 0.1672 0.798097 0.578866
vn -0.205052 0.728578 0.65355
vn -0.492603 0.407945 0.768715
vn 0.341108 0.441133 0.830088
vn 0.419081 0.907891 0.0102162
vn -0.205052 0.728578 0.65355
vn 0.341108 0.441133 0.830088
vn 0.419081 0.907891 0.0102162
vn 0.1672 0.798097 0.578866
vn -0.205052 0.728578 0.65355
vn 0.492603 0.407945 0.768715
vn -0.336993 0.442324 0.831135
vn 0.235702 0.235702 0.942809
vn 0.341108 0.441133 0.830088
vn -0.492603 0.407945 0.768715
vn -0.301511 0.301511 0.904534
vn 0.235702 0.235702 0.942809
vn -0.336993 0.442324 0.831135
vn -0.408248 -0.408248 0.816497
vn 0.235702 0.235702 0.942809
vn -0.408248 -0.408248 0.816497
vn 0.301511 -0.301511 0.904534
vn -0.301511 0.301511 0.904534
vn 0.235702 0.235702 0.942809
vn 0.301511 -0.301511 0.904534
vn 0.341108 0.441133 0.830088
vn -0.301511 0.301511 0.904534
vn 0.301511 -0.301511 0.904534
g Default
usemtl Default
s off
f 4/10/1 3/48/2 2/47/3 1/9/4
f 2/181/5 6/182/6 5/96/7 1/95/8
f 3/205/9 7/206/10 6/82/11 2/81/12
f 8/102/13 7/186/14 3/185/15 4/101/16
f 5/78/17 8/100/18 4/99/19 1/77/20
f 6/97/21 7/98/22 8/2/23 5/1/24
f 11/115/25 15/114/26 14/149/27 10/150/28
f 16/45/29 15/51/30 11/52/31 12/46/32
f 13/136/33 16/106/34 12/107/35 9/137/36
f 14/126/37 15/125/38 16/104/39 13/105/40
f 30/35/41 34/36/42 33/18/43 17/17/44
f 33/62/45 32/64/46 18/63/47 17/61/48
f 29/12/49 30/4/50 17/3/51 18/11/52
f 32/74/53 31/84/54 29/83/55 18/73/56
f 24/49/57 25/39/58 21/40/59 20/50/60
f 21/88/61 25/87/62 26/91/63 22/92/64
f 22/144/65 26/143/66 23/179/67 19/180/68
f 26/147/69 25/127/70 24/128/71 23/148/72
f 39/90/73 40/94/74 36/93/75 27/89/76
f 28/53/77 38/54/78 39/60/79 27/59/80
f 27/13/81 36/14/82 35/6/83 28/5/84
f 35/69/85 37/70/86 38/58/87 28/57/88
f 46/19/89 47/79/90 43/80/91 42/20/92
f 43/204/93 47/203/94 48/171/95 44/172/96
f 44/68/97 48/67/98 45/55/99 41/56/100
f 48/28/101 47/38/102 46/37/103 45/27/104
f 65/162/105 66/132/106 62/131/107 49/161/108
f 50/71/109 64/72/110 65/66/111 49/65/112
f 49/26/113 62/25/114 61/29/115 50/30/116
f 61/75/117 63/76/118 64/86/119 50/85/120
f 53/160/121 57/159/122 56/129/123 52/130/124
f 58/163/125 57/141/126 53/142/127 54/164/128
f 55/155/129 58/195/130 54/196/131 51/156/132
f 56/7/133 57/8/134 58/22/135 55/21/136
f 68/109/137 72/110/138 71/146/139 59/145/140
f 71/208/141 70/184/142 60/183/143 59/207/144
f 67/15/145 68/23/146 59/24/147 60/16/148
f 70/194/149 69/152/150 67/151/151 60/193/152
f 32/42/153 10/43/154 31/41/155
f 32/118/156 11/124/157 10/123/158
f 12/32/159 11/44/160 32/42/161
f 33/34/162 34/33/163 9/31/164
f 12/32/165 33/34/166 9/31/167
f 12/32/168 32/42/169 33/34/170
f 31/117/171 10/123/172 29/116/173
f 9/154/174 34/158/175 30/157/176
f 29/116/177 10/123/178 14/122/179
f 29/116/180 14/122/181 13/103/182
f 30/108/183 29/116/184 13/103/185
f 9/154/186 30/157/187 13/153/188
f 20/169/189 38/178/190 37/177/191
f 21/170/192 38/178/193 20/169/194
f 21/170/195 22/202/196 38/178/197
f 40/191/198 39/192/199 19/201/200
f 38/178/201 22/202/202 39/192/203
f 39/192/204 22/202/205 19/201/206
f 20/169/207 37/177/208 35/176/209
f 40/191/210 19/201/211 36/190/212
f 20/169/213 35/176/214 24/168/215
f 24/168/216 35/176/217 23/200/218
f 36/190/219 19/201/220 23/200/221
f 35/176/222 36/190/223 23/200/224
f 42/139/225 64/135/226 63/134/227
f 43/140/228 64/135/229 42/139/230
f 43/140/231 44/113/232 64/135/233
f 66/120/234 65/121/235 41/112/236
f 64/135/237 44/113/238 65/121/239
f 65/121/240 44/113/241 41/112/242
f 42/139/243 63/134/244 61/133/245
f 66/120/246 41/112/247 62/119/248
f 42/139/249 61/133/250 46/138/251
f 46/138/252 61/133/253 45/111/254
f 62/119/255 41/112/256 45/111/257
f 61/133/258 62/119/259 45/111/260
f 70/175/261 52/166/262 69/174/263
f 70/175/264 53/167/265 52/166/266
f 54/199/267 53/167/268 70/175/269
f 71/189/270 72/188/271 51/198/272
f 54/199/273 71/189/274 51/198/275
f 54/199/276 70/175/277 71/189/278
f 69/174/279 52/166/280 67/173/281
f 51/198/282 72/188/283 68/187/284
f 67/173/285 52/166/286 56/165/287
f 67/173/288 56/165/289 55/197/290
f 68/187/291 67/173/292 55/197/293
f 51/198/294 68/187/295 55/197/296
