####
#
#	OBJ File Generated by LightWave3D
#	LightWave3D OBJ Export v2.3
#
####
o map_table.obj
mtllib map_table.mtl
g default
v -4.34127 -0.0634921 2.33415
v -4.34127 0.0634921 2.33415
v 4.34127 0.0634921 2.33415
v 4.34127 -0.0634921 2.33415
v -4.34127 -0.0634921 -1.53054
v -4.34127 0.0634921 -1.53054
v 4.34127 0.0634921 -1.53054
v 4.34127 -0.0634921 -1.53054
v -3.07937 -3.10197 -1.53054
v -3.07937 -0.0408907 1.53054
v -2.65079 -0.0408907 1.53054
v -2.65079 -3.10197 -1.53054
v -3.07937 -2.81625 -1.53054
v -3.07937 -0.0408907 1.24482
v -2.65079 -0.0408907 1.24482
v -2.65079 -2.81625 -1.53054
v 3.07937 -3.10197 -1.53054
v 3.07937 -0.0408907 1.53054
v 2.65079 -0.0408907 1.53054
v 2.65079 -3.10197 -1.53054
v 3.07937 -2.81625 -1.53054
v 3.07937 -0.0408907 1.24482
v 2.65079 -0.0408907 1.24482
v 2.65079 -2.81625 -1.53054
vt -0.0127669 0.381911
vt -0.0127669 1.01842
vt 0.00275519 0.00185185
vt 0.00275519 0.00925926
vt 0.00275519 0.012963
vt 0.00275519 0.0203704
vt 0.00275519 0.0249513
vt 0.00275519 0.330604
vt 0.019126 0.313875
vt 0.0414349 0.313875
vt 0.258138 0.0748621
vt 0.258138 0.0971711
vt 0.26357 0.313875
vt 0.285879 0.313875
vt 0.495882 0.316605
vt 0.502583 0.0748621
vt 0.502583 0.0971711
vt 0.518191 0.316605
vt 0.675023 0.00185185
vt 0.675023 0.00925926
vt 0.675023 0.012963
vt 0.675023 0.0203704
vt 0.675023 0.0249513
vt 0.675023 0.330604
vt 0.680159 0.0249383
vt 0.680159 0.263951
vt 0.680159 0.269048
vt 0.680159 0.297619
vt 0.680507 0.00185185
vt 0.680507 0.00925926
vt 0.680507 0.012963
vt 0.680507 0.0203704
vt 0.70873 0.0249383
vt 0.70873 0.263951
vt 0.70873 0.269048
vt 0.70873 0.297619
vt 0.713492 0.0249383
vt 0.713492 0.0472472
vt 0.713492 0.263951
vt 0.713492 0.269048
vt 0.713492 0.297619
vt 0.734894 0.0775919
vt 0.734894 0.0999009
vt 0.742063 0.0249383
vt 0.742063 0.0472472
vt 0.742063 0.263951
vt 0.742063 0.269048
vt 0.742063 0.297619
vt 0.74716 0.263951
vt 0.769469 0.263951
vt 0.84644 0.381911
vt 0.84644 1.01842
vt 0.924603 0.336049
vt 0.924603 0.575062
vt 0.953175 0.336049
vt 0.953175 0.575062
vt 0.957937 0.336049
vt 0.957937 0.358358
vt 0.957937 0.575062
vt 0.98616 0.00185185
vt 0.98616 0.00925926
vt 0.98616 0.012963
vt 0.98616 0.0203704
vt 0.986173 0.0249383
vt 0.986173 0.0472472
vt 0.986508 0.336049
vt 0.986508 0.358358
vt 0.986508 0.575062
vn 0.57735 -0.57735 0.57735
vn 0.57735 0.57735 0.57735
vn -0.57735 0.57735 0.57735
vn -0.57735 -0.57735 0.57735
vn -0.57735 0.57735 0.57735
vn -0.57735 0.57735 -0.57735
vn -0.57735 -0.57735 -0.57735
vn -0.57735 -0.57735 0.57735
vn 0.57735 0.57735 0.57735
vn 0.57735 0.57735 -0.57735
vn -0.57735 0.57735 -0.57735
vn -0.57735 0.57735 0.57735
vn 0.57735 -0.57735 -0.57735
vn 0.57735 0.57735 -0.57735
vn 0.57735 0.57735 0.57735
vn 0.57735 -0.57735 0.57735
vn -0.57735 -0.57735 -0.57735
vn 0.57735 -0.57735 -0.57735
vn 0.57735 -0.57735 0.57735
vn -0.57735 -0.57735 0.57735
vn -0.57735 0.57735 -0.57735
vn 0.57735 0.57735 -0.57735
vn 0.57735 -0.57735 -0.57735
vn -0.57735 -0.57735 -0.57735
vn 0.794104 -0.561517 -0.232588
vn 0.794104 0.232588 0.561517
vn -0.794104 0.232588 0.561517
vn -0.794104 -0.561517 -0.232588
vn -0.794104 0.232588 0.561517
vn -0.475963 0.81252 -0.336557
vn -0.475963 0.336557 -0.81252
vn -0.794104 -0.561517 -0.232588
vn 0.794104 0.232588 0.561517
vn 0.475963 0.81252 -0.336557
vn -0.475963 0.81252 -0.336557
vn -0.794104 0.232588 0.561517
vn 0.475963 0.336557 -0.81252
vn 0.475963 0.81252 -0.336557
vn 0.794104 0.232588 0.561517
vn 0.794104 -0.561517 -0.232588
vn -0.475963 0.336557 -0.81252
vn 0.475963 0.336557 -0.81252
vn 0.794104 -0.561517 -0.232588
vn -0.794104 -0.561517 -0.232588
vn -0.475963 0.81252 -0.336557
vn 0.475963 0.81252 -0.336557
vn 0.475963 0.336557 -0.81252
vn -0.475963 0.336557 -0.81252
vn 0.794104 0.232588 0.561517
vn -0.794104 0.232588 0.561517
vn -0.794104 -0.561517 -0.232588
vn 0.794104 -0.561517 -0.232588
vn 0.475963 0.336557 -0.81252
vn 0.475963 0.81252 -0.336557
vn 0.794104 0.232588 0.561517
vn 0.794104 -0.561517 -0.232588
vn 0.475963 0.81252 -0.336557
vn -0.475963 0.81252 -0.336557
vn -0.794104 0.232588 0.561517
vn 0.794104 0.232588 0.561517
vn -0.794104 0.232588 0.561517
vn -0.475963 0.81252 -0.336557
vn -0.475963 0.336557 -0.81252
vn -0.794104 -0.561517 -0.232588
vn -0.794104 -0.561517 -0.232588
vn -0.475963 0.336557 -0.81252
vn 0.475963 0.336557 -0.81252
vn 0.794104 -0.561517 -0.232588
vn -0.475963 0.336557 -0.81252
vn -0.475963 0.81252 -0.336557
vn 0.475963 0.81252 -0.336557
vn 0.475963 0.336557 -0.81252
g Default
usemtl Default
s off
f 4/19/1 3/20/2 2/4/3 1/3/4
f 2/32/5 6/63/6 5/62/7 1/31/8
f 3/51/9 7/52/10 6/2/11 2/1/12
f 8/60/13 7/61/14 3/30/15 4/29/16
f 5/8/17 8/24/18 4/23/19 1/7/20
f 6/6/21 7/22/22 8/21/23 5/5/24
f 12/56/25 11/55/26 10/53/27 9/54/28
f 10/9/29 14/10/30 13/12/31 9/11/32
f 11/44/33 15/45/34 14/38/35 10/37/36
f 16/43/37 15/18/38 11/15/39 12/42/40
f 13/28/41 16/36/42 12/35/43 9/27/44
f 14/38/45 15/45/46 16/46/47 13/39/48
f 18/33/49 19/25/50 20/26/51 17/34/52
f 21/65/53 22/50/54 18/49/55 17/64/56
f 22/67/57 23/58/58 19/57/59 18/66/60
f 19/13/61 23/14/62 24/17/63 20/16/64
f 20/40/65 24/41/66 21/48/67 17/47/68
f 24/59/69 23/58/70 22/67/71 21/68/72
