####
#
#	OBJ File Generated by LightWave3D
#	LightWave3D OBJ Export v2.3
#
####
o barber_magazineRack.obj
mtllib barber_magazineRack.mtl
g default
v -5.11073 -3.53617 0.087229
v -5.11073 -1.85728 0.087229
v 5.11073 -1.85728 0.087229
v 5.11073 -3.53617 0.087229
v -5.11073 -3.53617 -0.367137
v -5.11073 -1.04537 -0.367137
v 5.11073 -1.04537 -0.367137
v 5.11073 -3.53617 -0.367137
v -5.11073 -3.53617 -0.821503
v -5.11073 -0.175455 -0.821503
v 5.11073 -0.175455 -0.821503
v 5.11073 -3.53617 -0.821503
v -5.11073 -3.53617 -1.27587
v -5.11073 0.675125 -1.27587
v 5.11073 0.675125 -1.27587
v 5.11073 -3.53617 -1.27587
v -5.11073 -3.53617 -1.69157
v -5.11073 1.62236 -1.69157
v 5.11073 1.62236 -1.69157
v 5.11073 -3.53617 -1.69157
v -5.11073 -3.53617 -2.1846
v -5.11073 2.55027 -2.1846
v 5.11073 2.55027 -2.1846
v 5.11073 -3.53617 -2.1846
v -5.11073 -3.53617 -2.69696
v -5.11073 3.53617 -2.69696
v 5.11073 3.53617 -2.69696
v 5.11073 -3.53617 -2.69696
v -5.04697 -1.88279 0.0234711
v -5.04697 -1.07087 -0.303379
v 5.04697 -1.07087 -0.303379
v 5.04697 -1.88279 0.0234711
v -5.04697 -3.46796 0.0234711
v -5.04697 -3.46796 -0.303379
v 5.04697 -3.46796 -0.303379
v 5.04697 -3.46796 0.0234711
v -5.05972 -1.04537 -0.418143
v -5.05972 -0.175455 -0.770497
v 5.05972 -0.175455 -0.770497
v 5.05972 -1.04537 -0.418143
v -5.05972 -3.46178 -0.418143
v -5.05972 -3.46178 -0.770497
v 5.05972 -3.46178 -0.770497
v 5.05972 -3.46178 -0.418143
v -5.04697 -0.175455 -0.885261
v -5.04697 0.675125 -1.21211
v 5.04697 0.675125 -1.21211
v 5.04697 -0.175455 -0.885261
v -5.04697 -3.48112 -0.885261
v -5.04697 -3.48112 -1.21211
v 5.04697 -3.48112 -1.21211
v 5.04697 -3.48112 -0.885261
v -5.04697 0.675125 -1.33963
v -5.04697 1.62236 -1.62782
v 5.04697 1.62236 -1.62782
v 5.04697 0.675125 -1.33963
v -5.04697 -3.46178 -1.33963
v -5.04697 -3.46178 -1.62782
v 5.04697 -3.46178 -1.62782
v 5.04697 -3.46178 -1.33963
v -5.04697 1.62236 -1.75533
v -5.04697 2.55027 -2.12084
v 5.04697 2.55027 -2.12084
v 5.04697 1.62236 -1.75533
v -5.04697 -3.44245 -1.75533
v -5.04697 -3.44245 -2.12084
v 5.04697 -3.44245 -2.12084
v 5.04697 -3.44245 -1.75533
v -5.04697 2.55027 -2.24836
v -5.04697 3.53617 -2.6332
v 5.04697 3.53617 -2.6332
v 5.04697 2.55027 -2.24836
v -5.04697 -3.44245 -2.24836
v -5.04697 -3.44245 -2.6332
v 5.04697 -3.44245 -2.6332
v 5.04697 -3.44245 -2.24836
vt 0.0106061 0.0103306
vt 0.0106061 0.216942
vt 0.0106061 0.237603
vt 0.0106061 0.28665
vt 0.0106061 0.31037
vt 0.0106061 0.335783
vt 0.0106061 0.360632
vt 0.0106061 0.388305
vt 0.0106061 0.415413
vt 0.0106061 0.444215
vt 0.0106061 0.464646
vt 0.0106061 0.626263
vt 0.0106061 0.646104
vt 0.0106061 0.762987
vt 0.012088 0.239776
vt 0.012088 0.31037
vt 0.012088 0.335783
vt 0.0124585 0.239212
vt 0.0124585 0.239596
vt 0.0124585 0.239776
vt 0.0124585 0.240341
vt 0.0124585 0.285905
vt 0.0124585 0.309625
vt 0.0124585 0.335783
vt 0.0124585 0.360632
vt 0.0124585 0.388305
vt 0.0124585 0.415413
vt 0.0124585 0.444215
vt 0.189394 0.783058
vt 0.189394 0.960481
vt 0.211046 0.114496
vt 0.211046 0.233175
vt 0.219697 0.783058
vt 0.219697 0.989669
vt 0.234848 0.783058
vt 0.234848 0.960481
vt 0.248646 0.0970238
vt 0.248646 0.215704
vt 0.265152 0.783058
vt 0.265152 0.989669
vt 0.280303 0.782828
vt 0.280303 0.91942
vt 0.284035 0.0802108
vt 0.284035 0.198891
vt 0.305723 0.239212
vt 0.305723 0.239596
vt 0.305723 0.239776
vt 0.305723 0.240341
vt 0.305723 0.285905
vt 0.305723 0.309625
vt 0.305723 0.335783
vt 0.305723 0.360632
vt 0.305723 0.388305
vt 0.305723 0.415413
vt 0.305723 0.444215
vt 0.306094 0.239776
vt 0.306094 0.31037
vt 0.306094 0.335783
vt 0.307576 0.0103306
vt 0.307576 0.216942
vt 0.307576 0.237603
vt 0.307576 0.28665
vt 0.307576 0.31037
vt 0.307576 0.335783
vt 0.307576 0.360632
vt 0.307576 0.388305
vt 0.307576 0.415413
vt 0.307576 0.444215
vt 0.307576 0.464646
vt 0.307576 0.626263
vt 0.307576 0.646104
vt 0.307576 0.762987
vt 0.310606 0.782828
vt 0.310606 0.944444
vt 0.32016 0.0660349
vt 0.32016 0.184715
vt 0.325758 0.646104
vt 0.325758 0.739067
vt 0.325758 0.782828
vt 0.325758 0.91942
vt 0.328788 0.0244108
vt 0.328788 0.0833333
vt 0.328788 0.113636
vt 0.328788 0.145455
vt 0.328788 0.157323
vt 0.328788 0.169192
vt 0.328788 0.181061
vt 0.328788 0.19192
vt 0.328788 0.204798
vt 0.328788 0.218182
vt 0.328788 0.236364
vt 0.328788 0.309091
vt 0.328788 0.325758
vt 0.328788 0.356061
vt 0.328788 0.371212
vt 0.328788 0.401515
vt 0.328788 0.464646
vt 0.328788 0.626263
vt 0.33027 0.0378788
vt 0.33064 0.00757576
vt 0.33064 0.0530303
vt 0.33064 0.0984849
vt 0.33064 0.128788
vt 0.3526 0.0505405
vt 0.3526 0.16922
vt 0.356061 0.646104
vt 0.356061 0.762987
vt 0.356061 0.782828
vt 0.356061 0.944444
vt 0.371212 0.645455
vt 0.371212 0.698931
vt 0.371212 0.782828
vt 0.371212 0.914333
vt 0.385778 0.0350461
vt 0.385778 0.153726
vt 0.401515 0.645455
vt 0.401515 0.718182
vt 0.401515 0.782828
vt 0.401515 0.944444
vt 0.416667 0.645455
vt 0.416667 0.698931
vt 0.416667 0.782828
vt 0.416667 0.914333
vt 0.416742 0.0195517
vt 0.416742 0.138232
vt 0.44697 0.645455
vt 0.44697 0.718182
vt 0.44697 0.782828
vt 0.44697 0.944444
vt 0.462121 0.645455
vt 0.462121 0.693548
vt 0.480772 0.0195517
vt 0.480772 0.0350461
vt 0.480772 0.0505405
vt 0.480772 0.0660349
vt 0.480772 0.0802108
vt 0.480772 0.0970238
vt 0.480772 0.114496
vt 0.480772 0.138232
vt 0.480772 0.153726
vt 0.480772 0.16922
vt 0.480772 0.184715
vt 0.480772 0.198891
vt 0.480772 0.215704
vt 0.480772 0.233175
vt 0.492424 0.645455
vt 0.492424 0.718182
vt 0.507576 0.645455
vt 0.507576 0.693548
vt 0.537879 0.645455
vt 0.537879 0.718182
vt 0.623905 0.00757576
vt 0.623905 0.0530303
vt 0.623905 0.0984849
vt 0.623905 0.128788
vt 0.624276 0.0378788
vt 0.625758 0.0244108
vt 0.625758 0.0833333
vt 0.625758 0.113636
vt 0.625758 0.145455
vt 0.625758 0.157323
vt 0.625758 0.169192
vt 0.625758 0.181061
vt 0.625758 0.19192
vt 0.625758 0.204798
vt 0.625758 0.218182
vt 0.625758 0.236364
vt 0.625758 0.309091
vt 0.625758 0.325758
vt 0.625758 0.356061
vt 0.625758 0.371212
vt 0.625758 0.401515
vt 0.625758 0.464646
vt 0.625758 0.626263
vt 0.64697 0.0210438
vt 0.64697 0.0833333
vt 0.64697 0.113636
vt 0.64697 0.159091
vt 0.64697 0.189394
vt 0.64697 0.219697
vt 0.64697 0.234848
vt 0.64697 0.265152
vt 0.64697 0.280303
vt 0.64697 0.310606
vt 0.64697 0.325758
vt 0.64697 0.356061
vt 0.64697 0.464286
vt 0.64697 0.581169
vt 0.648452 0.00757576
vt 0.648822 0.0378788
vt 0.648822 0.0530303
vt 0.648822 0.0828535
vt 0.648822 0.0984849
vt 0.648822 0.128788
vt 0.648822 0.143939
vt 0.648822 0.174242
vt 0.942087 0.0378788
vt 0.942087 0.0530303
vt 0.942087 0.0828535
vt 0.942087 0.0984849
vt 0.942087 0.128788
vt 0.942087 0.143939
vt 0.942087 0.174242
vt 0.942457 0.00757576
vt 0.943939 0.0210438
vt 0.943939 0.0833333
vt 0.943939 0.113636
vt 0.943939 0.159091
vt 0.943939 0.189394
vt 0.943939 0.219697
vt 0.943939 0.234848
vt 0.943939 0.265152
vt 0.943939 0.280303
vt 0.943939 0.310606
vt 0.943939 0.325758
vt 0.943939 0.356061
vt 0.943939 0.464286
vt 0.943939 0.581169
vt 0.962121 0.464286
vt 0.962121 0.557249
vt 0.992424 0.464286
vt 0.992424 0.581169
vn -0.450226 0.619524 0.64303
vn -0.57735 -0.57735 0.57735
vn 0.333333 -0.666667 0.666667
vn 0.584252 0.507198 0.633561
vn -0.450226 0.619524 0.64303
vn 0.333333 -0.666667 0.666667
vn 0.57735 0.57735 0.57735
vn 0.57735 0.57735 -0.57735
vn -0.333333 0.666667 -0.666667
vn -0.816497 0.408248 0.408248
vn 0.57735 0.57735 0.57735
vn -0.333333 0.666667 -0.666667
vn -0.707107 -0.707107 -0
vn 0.333333 -0.666667 0.666667
vn -0.57735 -0.57735 0.57735
vn -0.707107 -0.707107 -0
vn 0.707107 -0.707107 -0
vn 0.333333 -0.666667 0.666667
vn -0.450226 0.619524 0.64303
vn -0.707107 -0.707107 -0
vn -0.57735 -0.57735 0.57735
vn -0.450226 0.619524 0.64303
vn -0.609036 0.720029 0.332615
vn -0.707107 -0.707107 -0
vn -0.609036 0.720029 0.332615
vn -0.5547 -0.83205 -0
vn -0.707107 -0.707107 -0
vn -0.609036 0.720029 0.332615
vn -0.8 -0.6 -0
vn -0.5547 -0.83205 -0
vn -0.609036 0.720029 0.332615
vn -0.291165 0.854204 0.430765
vn -0.8 -0.6 -0
vn -0.291165 0.854204 0.430765
vn -0.53301 0.782567 0.321698
vn -0.8 -0.6 -0
vn -0.53301 0.782567 0.321698
vn -0.5547 -0.83205 -0
vn -0.8 -0.6 -0
vn -0.53301 0.782567 0.321698
vn -0.707107 -0.707107 -0
vn -0.5547 -0.83205 -0
vn -0.53301 0.782567 0.321698
vn -0.475148 0.778822 0.409476
vn -0.707107 -0.707107 -0
vn -0.475148 0.778822 0.409476
vn -0.801784 -0.534522 -0.267261
vn -0.707107 -0.707107 -0
vn -0.291762 0.853405 0.431943
vn -0.505179 0.79952 -0.324904
vn -0.801784 -0.534522 -0.267261
vn -0.475148 0.778822 0.409476
vn -0.291762 0.853405 0.431943
vn -0.801784 -0.534522 -0.267261
vn 0.57735 0.57735 0.57735
vn 0.57735 0.57735 -0.57735
vn -0.333333 0.666667 -0.666667
vn -0.816497 0.408248 0.408248
vn 0.57735 0.57735 0.57735
vn -0.333333 0.666667 -0.666667
vn 0.707107 -0.707107 -0
vn 0.584252 0.507198 0.633561
vn 0.333333 -0.666667 0.666667
vn 0.772473 0.531029 0.348273
vn 0.584252 0.507198 0.633561
vn 0.707107 -0.707107 -0
vn 0.5547 -0.83205 -0
vn 0.772473 0.531029 0.348273
vn 0.707107 -0.707107 -0
vn 0.8 -0.6 -0
vn 0.772473 0.531029 0.348273
vn 0.5547 -0.83205 -0
vn 0.291165 0.854204 0.430765
vn 0.772473 0.531029 0.348273
vn 0.8 -0.6 -0
vn 0.686502 0.597528 0.414338
vn 0.291165 0.854204 0.430765
vn 0.8 -0.6 -0
vn 0.5547 -0.83205 -0
vn 0.686502 0.597528 0.414338
vn 0.8 -0.6 -0
vn 0.707107 -0.707107 -0
vn 0.686502 0.597528 0.414338
vn 0.5547 -0.83205 -0
vn 0.475148 0.778822 0.409476
vn 0.686502 0.597528 0.414338
vn 0.707107 -0.707107 -0
vn 0.801784 -0.267261 -0.534522
vn 0.475148 0.778822 0.409476
vn 0.707107 -0.707107 -0
vn 0.291762 0.853405 0.431943
vn 0.475148 0.778822 0.409476
vn 0.801784 -0.267261 -0.534522
vn 0.360501 0.924706 0.122303
vn 0.291762 0.853405 0.431943
vn 0.801784 -0.267261 -0.534522
vn -0.5547 -0.83205 -0
vn 0.707107 -0.707107 -0
vn -0.707107 -0.707107 -0
vn -0.5547 -0.83205 -0
vn 0.5547 -0.83205 -0
vn 0.707107 -0.707107 -0
vn 0.57735 0.57735 0.57735
vn 0.57735 0.57735 -0.57735
vn -0.333333 0.666667 -0.666667
vn -0.816497 0.408248 0.408248
vn 0.57735 0.57735 0.57735
vn -0.333333 0.666667 -0.666667
vn -0.8 -0.6 -0
vn 0.5547 -0.83205 -0
vn -0.5547 -0.83205 -0
vn -0.8 -0.6 -0
vn 0.8 -0.6 -0
vn 0.5547 -0.83205 -0
vn 0.57735 0.57735 0.57735
vn 0.57735 0.57735 -0.57735
vn -0.333333 0.666667 -0.666667
vn -0.816497 0.408248 0.408248
vn 0.57735 0.57735 0.57735
vn -0.333333 0.666667 -0.666667
vn -0.5547 -0.83205 -0
vn 0.8 -0.6 -0
vn -0.8 -0.6 -0
vn -0.5547 -0.83205 -0
vn 0.5547 -0.83205 -0
vn 0.8 -0.6 -0
vn 0.57735 0.57735 0.57735
vn 0.57735 0.57735 -0.57735
vn -0.333333 0.666667 -0.666667
vn -0.816497 0.408248 0.408248
vn 0.57735 0.57735 0.57735
vn -0.333333 0.666667 -0.666667
vn -0.707107 -0.707107 -0
vn 0.5547 -0.83205 -0
vn -0.5547 -0.83205 -0
vn -0.707107 -0.707107 -0
vn 0.707107 -0.707107 -0
vn 0.5547 -0.83205 -0
vn 0.57735 0.57735 0.57735
vn 0.57735 0.57735 -0.57735
vn -0.333333 0.666667 -0.666667
vn -0.816497 0.408248 0.408248
vn 0.57735 0.57735 0.57735
vn -0.333333 0.666667 -0.666667
vn -0.801784 -0.534522 -0.267261
vn 0.707107 -0.707107 -0
vn -0.707107 -0.707107 -0
vn -0.801784 -0.534522 -0.267261
vn 0.801784 -0.267261 -0.534522
vn 0.707107 -0.707107 -0
vn -0.505179 0.79952 -0.324904
vn 0.801784 -0.267261 -0.534522
vn -0.801784 -0.534522 -0.267261
vn -0.505179 0.79952 -0.324904
vn 0.360501 0.924706 0.122303
vn 0.801784 -0.267261 -0.534522
vn -0.450226 0.619524 0.64303
vn -0.753311 0.581897 -0.30646
vn 0.792362 0.342868 -0.504583
vn -0.450226 0.619524 0.64303
vn 0.584252 0.507198 0.633561
vn -0.753311 0.581897 -0.30646
vn 0.348385 0.471707 0.810012
vn -0.450226 0.619524 0.64303
vn 0.792362 0.342868 -0.504583
vn 0.348385 0.471707 0.810012
vn -0.609036 0.720029 0.332615
vn -0.450226 0.619524 0.64303
vn -0.609036 0.720029 0.332615
vn 0.348385 0.471707 0.810012
vn -0.236878 0.508382 0.827911
vn 0.772473 0.531029 0.348273
vn -0.609036 0.720029 0.332615
vn -0.236878 0.508382 0.827911
vn 0.584252 0.507198 0.633561
vn -0.236878 0.508382 0.827911
vn -0.753311 0.581897 -0.30646
vn 0.772473 0.531029 0.348273
vn -0.236878 0.508382 0.827911
vn 0.584252 0.507198 0.633561
vn 0.792362 0.342868 -0.504583
vn -0.333333 0.666667 -0.666667
vn 0.57735 0.57735 -0.57735
vn 0.792362 0.342868 -0.504583
vn -0.753311 0.581897 -0.30646
vn -0.333333 0.666667 -0.666667
vn 0.57735 0.57735 0.57735
vn 0.792362 0.342868 -0.504583
vn 0.57735 0.57735 -0.57735
vn 0.348385 0.471707 0.810012
vn 0.792362 0.342868 -0.504583
vn 0.57735 0.57735 0.57735
vn -0.236878 0.508382 0.827911
vn 0.57735 0.57735 0.57735
vn -0.816497 0.408248 0.408248
vn -0.236878 0.508382 0.827911
vn 0.348385 0.471707 0.810012
vn 0.57735 0.57735 0.57735
vn -0.753311 0.581897 -0.30646
vn -0.816497 0.408248 0.408248
vn -0.333333 0.666667 -0.666667
vn -0.753311 0.581897 -0.30646
vn -0.236878 0.508382 0.827911
vn -0.816497 0.408248 0.408248
vn -0.600078 0.793177 0.103809
vn -0.609036 0.720029 0.332615
vn 0.772473 0.531029 0.348273
vn -0.600078 0.793177 0.103809
vn 0.749911 0.613157 -0.248338
vn -0.609036 0.720029 0.332615
vn 0.749911 0.613157 -0.248338
vn -0.291165 0.854204 0.430765
vn -0.609036 0.720029 0.332615
vn 0.112516 0.799402 0.590167
vn -0.291165 0.854204 0.430765
vn 0.749911 0.613157 -0.248338
vn 0.291165 0.854204 0.430765
vn 0.112516 0.799402 0.590167
vn -0.107287 0.427248 0.897746
vn 0.291165 0.854204 0.430765
vn -0.291165 0.854204 0.430765
vn 0.112516 0.799402 0.590167
vn 0.291165 0.854204 0.430765
vn -0.600078 0.793177 0.103809
vn 0.772473 0.531029 0.348273
vn 0.291165 0.854204 0.430765
vn -0.107287 0.427248 0.897746
vn -0.600078 0.793177 0.103809
vn 0.749911 0.613157 -0.248338
vn -0.333333 0.666667 -0.666667
vn 0.57735 0.57735 -0.57735
vn 0.749911 0.613157 -0.248338
vn -0.600078 0.793177 0.103809
vn -0.333333 0.666667 -0.666667
vn 0.57735 0.57735 0.57735
vn 0.749911 0.613157 -0.248338
vn 0.57735 0.57735 -0.57735
vn 0.112516 0.799402 0.590167
vn 0.749911 0.613157 -0.248338
vn 0.57735 0.57735 0.57735
vn -0.107287 0.427248 0.897746
vn 0.57735 0.57735 0.57735
vn -0.816497 0.408248 0.408248
vn -0.107287 0.427248 0.897746
vn 0.112516 0.799402 0.590167
vn 0.57735 0.57735 0.57735
vn -0.600078 0.793177 0.103809
vn -0.816497 0.408248 0.408248
vn -0.333333 0.666667 -0.666667
vn -0.600078 0.793177 0.103809
vn -0.107287 0.427248 0.897746
vn -0.816497 0.408248 0.408248
vn -0.600107 0.793095 0.104268
vn -0.291165 0.854204 0.430765
vn 0.291165 0.854204 0.430765
vn -0.600107 0.793095 0.104268
vn 0.750317 0.612493 -0.248751
vn -0.291165 0.854204 0.430765
vn 0.750317 0.612493 -0.248751
vn -0.53301 0.782567 0.321698
vn -0.291165 0.854204 0.430765
vn 0.14933 0.593403 0.790932
vn -0.53301 0.782567 0.321698
vn 0.750317 0.612493 -0.248751
vn -0.53301 0.782567 0.321698
vn 0.14933 0.593403 0.790932
vn -0.0901533 0.642073 0.761324
vn 0.686502 0.597528 0.414338
vn -0.53301 0.782567 0.321698
vn -0.0901533 0.642073 0.761324
vn 0.686502 0.597528 0.414338
vn -0.600107 0.793095 0.104268
vn 0.291165 0.854204 0.430765
vn 0.686502 0.597528 0.414338
vn -0.0901533 0.642073 0.761324
vn -0.600107 0.793095 0.104268
vn 0.750317 0.612493 -0.248751
vn -0.333333 0.666667 -0.666667
vn 0.57735 0.57735 -0.57735
vn 0.750317 0.612493 -0.248751
vn -0.600107 0.793095 0.104268
vn -0.333333 0.666667 -0.666667
vn 0.57735 0.57735 0.57735
vn 0.750317 0.612493 -0.248751
vn 0.57735 0.57735 -0.57735
vn 0.14933 0.593403 0.790932
vn 0.750317 0.612493 -0.248751
vn 0.57735 0.57735 0.57735
vn -0.0901533 0.642073 0.761324
vn 0.57735 0.57735 0.57735
vn -0.816497 0.408248 0.408248
vn -0.0901533 0.642073 0.761324
vn 0.14933 0.593403 0.790932
vn 0.57735 0.57735 0.57735
vn -0.600107 0.793095 0.104268
vn -0.816497 0.408248 0.408248
vn -0.333333 0.666667 -0.666667
vn -0.600107 0.793095 0.104268
vn -0.0901533 0.642073 0.761324
vn -0.816497 0.408248 0.408248
vn -0.616588 0.778996 0.113952
vn -0.53301 0.782567 0.321698
vn 0.686502 0.597528 0.414338
vn -0.616588 0.778996 0.113952
vn 0.771847 0.586135 -0.24637
vn -0.53301 0.782567 0.321698
vn 0.771847 0.586135 -0.24637
vn -0.475148 0.778822 0.409476
vn -0.53301 0.782567 0.321698
vn 0.110263 0.789327 0.603991
vn -0.475148 0.778822 0.409476
vn 0.771847 0.586135 -0.24637
vn 0.475148 0.778822 0.409476
vn 0.110263 0.789327 0.603991
vn -0.104064 0.407921 0.907067
vn 0.475148 0.778822 0.409476
vn -0.475148 0.778822 0.409476
vn 0.110263 0.789327 0.603991
vn 0.475148 0.778822 0.409476
vn -0.616588 0.778996 0.113952
vn 0.686502 0.597528 0.414338
vn 0.475148 0.778822 0.409476
vn -0.104064 0.407921 0.907067
vn -0.616588 0.778996 0.113952
vn 0.771847 0.586135 -0.24637
vn -0.333333 0.666667 -0.666667
vn 0.57735 0.57735 -0.57735
vn 0.771847 0.586135 -0.24637
vn -0.616588 0.778996 0.113952
vn -0.333333 0.666667 -0.666667
vn 0.57735 0.57735 0.57735
vn 0.771847 0.586135 -0.24637
vn 0.57735 0.57735 -0.57735
vn 0.110263 0.789327 0.603991
vn 0.771847 0.586135 -0.24637
vn 0.57735 0.57735 0.57735
vn -0.104064 0.407921 0.907067
vn 0.57735 0.57735 0.57735
vn -0.816497 0.408248 0.408248
vn -0.104064 0.407921 0.907067
vn 0.110263 0.789327 0.603991
vn 0.57735 0.57735 0.57735
vn -0.616588 0.778996 0.113952
vn -0.816497 0.408248 0.408248
vn -0.333333 0.666667 -0.666667
vn -0.616588 0.778996 0.113952
vn -0.104064 0.407921 0.907067
vn -0.816497 0.408248 0.408248
vn -0.599797 0.793378 0.103898
vn -0.475148 0.778822 0.409476
vn 0.475148 0.778822 0.409476
vn -0.599797 0.793378 0.103898
vn 0.74976 0.613217 -0.248648
vn -0.475148 0.778822 0.409476
vn 0.74976 0.613217 -0.248648
vn -0.291762 0.853405 0.431943
vn -0.475148 0.778822 0.409476
vn 0.112209 0.798324 0.591682
vn -0.291762 0.853405 0.431943
vn 0.74976 0.613217 -0.248648
vn 0.291762 0.853405 0.431943
vn 0.112209 0.798324 0.591682
vn -0.106876 0.425166 0.898783
vn 0.291762 0.853405 0.431943
vn -0.291762 0.853405 0.431943
vn 0.112209 0.798324 0.591682
vn 0.291762 0.853405 0.431943
vn -0.599797 0.793378 0.103898
vn 0.475148 0.778822 0.409476
vn 0.291762 0.853405 0.431943
vn -0.106876 0.425166 0.898783
vn -0.599797 0.793378 0.103898
vn 0.74976 0.613217 -0.248648
vn -0.333333 0.666667 -0.666667
vn 0.57735 0.57735 -0.57735
vn 0.74976 0.613217 -0.248648
vn -0.599797 0.793378 0.103898
vn -0.333333 0.666667 -0.666667
vn 0.57735 0.57735 0.57735
vn 0.74976 0.613217 -0.248648
vn 0.57735 0.57735 -0.57735
vn 0.112209 0.798324 0.591682
vn 0.74976 0.613217 -0.248648
vn 0.57735 0.57735 0.57735
vn -0.106876 0.425166 0.898783
vn 0.57735 0.57735 0.57735
vn -0.816497 0.408248 0.408248
vn -0.106876 0.425166 0.898783
vn 0.112209 0.798324 0.591682
vn 0.57735 0.57735 0.57735
vn -0.599797 0.793378 0.103898
vn -0.816497 0.408248 0.408248
vn -0.333333 0.666667 -0.666667
vn -0.599797 0.793378 0.103898
vn -0.106876 0.425166 0.898783
vn -0.816497 0.408248 0.408248
vn -0.601319 0.792111 0.104766
vn -0.291762 0.853405 0.431943
vn 0.291762 0.853405 0.431943
vn -0.601319 0.792111 0.104766
vn 0.751712 0.610971 -0.248283
vn -0.291762 0.853405 0.431943
vn 0.751712 0.610971 -0.248283
vn -0.505179 0.79952 -0.324904
vn -0.291762 0.853405 0.431943
vn 0.112116 0.797976 0.592169
vn -0.505179 0.79952 -0.324904
vn 0.751712 0.610971 -0.248283
vn 0.360501 0.924706 0.122303
vn 0.112116 0.797976 0.592169
vn -0.10675 0.424497 0.899115
vn 0.360501 0.924706 0.122303
vn -0.505179 0.79952 -0.324904
vn 0.112116 0.797976 0.592169
vn 0.360501 0.924706 0.122303
vn -0.601319 0.792111 0.104766
vn 0.291762 0.853405 0.431943
vn 0.360501 0.924706 0.122303
vn -0.10675 0.424497 0.899115
vn -0.601319 0.792111 0.104766
vn 0.751712 0.610971 -0.248283
vn -0.333333 0.666667 -0.666667
vn 0.57735 0.57735 -0.57735
vn 0.751712 0.610971 -0.248283
vn -0.601319 0.792111 0.104766
vn -0.333333 0.666667 -0.666667
vn 0.57735 0.57735 0.57735
vn 0.751712 0.610971 -0.248283
vn 0.57735 0.57735 -0.57735
vn 0.112116 0.797976 0.592169
vn 0.751712 0.610971 -0.248283
vn 0.57735 0.57735 0.57735
vn -0.10675 0.424497 0.899115
vn 0.57735 0.57735 0.57735
vn -0.816497 0.408248 0.408248
vn -0.10675 0.424497 0.899115
vn 0.112116 0.797976 0.592169
vn 0.57735 0.57735 0.57735
vn -0.601319 0.792111 0.104766
vn -0.816497 0.408248 0.408248
vn -0.333333 0.666667 -0.666667
vn -0.601319 0.792111 0.104766
vn -0.10675 0.424497 0.899115
vn -0.816497 0.408248 0.408248
g Default
usemtl Default
s off
f 2/4/1 1/3/2 4/61/3
f 3/62/4 2/4/5 4/61/6
f 34/186/7 33/185/8 36/215/9
f 35/216/10 34/186/11 36/215/12
f 5/85/13 4/160/14 1/84/15
f 5/85/16 8/161/17 4/160/18
f 2/125/19 5/140/20 1/139/21
f 2/125/22 6/115/23 5/140/24
f 6/115/25 9/141/26 5/140/27
f 6/115/28 13/142/29 9/141/30
f 6/115/31 10/105/32 13/142/33
f 10/105/34 14/76/35 13/142/36
f 14/76/37 17/143/38 13/142/39
f 14/76/40 21/144/41 17/143/42
f 14/76/43 18/44/44 21/144/45
f 18/44/46 25/145/47 21/144/48
f 22/38/49 26/32/50 25/145/51
f 18/44/52 22/38/53 25/145/54
f 42/180/55 41/179/56 44/209/57
f 43/210/58 42/180/59 44/209/60
f 8/133/61 3/124/62 4/132/63
f 7/114/64 3/124/65 8/133/66
f 12/134/67 7/114/68 8/133/69
f 16/135/70 7/114/71 12/134/72
f 11/104/73 7/114/74 16/135/75
f 15/75/76 11/104/77 16/135/78
f 20/136/79 15/75/80 16/135/81
f 24/137/82 15/75/83 20/136/84
f 19/43/85 15/75/86 24/137/87
f 28/138/88 19/43/89 24/137/90
f 23/37/91 19/43/92 28/138/93
f 27/31/94 23/37/95 28/138/96
f 9/86/97 8/161/98 5/85/99
f 9/86/100 12/162/101 8/161/102
f 50/182/103 49/181/104 52/211/105
f 51/212/106 50/182/107 52/211/108
f 13/87/109 12/162/110 9/86/111
f 13/87/112 16/163/113 12/162/114
f 58/184/115 57/183/116 60/213/117
f 59/214/118 58/184/119 60/213/120
f 17/88/121 16/163/122 13/87/123
f 17/88/124 20/164/125 16/163/126
f 66/94/127 65/93/128 68/169/129
f 67/170/130 66/94/131 68/169/132
f 21/89/133 20/164/134 17/88/135
f 21/89/136 24/165/137 20/164/138
f 74/96/139 73/95/140 76/171/141
f 75/172/142 74/96/143 76/171/144
f 25/90/145 24/165/146 21/89/147
f 25/90/148 28/166/149 24/165/150
f 26/2/151 28/59/152 25/1/153
f 26/2/154 27/60/155 28/59/156
f 2/176/157 32/199/158 29/192/159
f 2/176/160 3/206/161 32/199/162
f 30/23/163 2/4/164 29/22/165
f 30/23/166 6/5/167 2/4/168
f 6/81/169 30/100/170 31/152/171
f 7/157/172 6/81/173 31/152/174
f 3/62/175 31/50/176 32/49/177
f 7/63/178 31/50/179 3/62/180
f 29/192/181 36/198/182 33/191/183
f 29/192/184 32/199/185 36/198/186
f 34/150/187 29/149/188 33/148/189
f 30/151/190 29/149/191 34/150/192
f 31/50/193 34/19/194 35/46/195
f 31/50/196 30/23/197 34/19/198
f 32/131/199 35/146/200 36/130/201
f 32/131/202 31/147/203 35/146/204
f 40/156/205 6/81/206 7/157/207
f 40/156/208 37/99/209 6/81/210
f 37/16/211 10/6/212 6/5/213
f 38/17/214 10/6/215 37/16/216
f 11/205/217 38/189/218 39/204/219
f 11/205/220 10/175/221 38/189/222
f 11/64/223 40/57/224 7/63/225
f 11/64/226 39/58/227 40/57/228
f 37/92/229 44/167/230 41/91/231
f 37/92/232 40/168/233 44/167/234
f 42/126/235 37/121/236 41/120/237
f 38/127/238 37/121/239 42/126/240
f 39/58/241 42/15/242 43/56/243
f 39/58/244 38/17/245 42/15/246
f 40/111/247 43/116/248 44/110/249
f 40/111/250 39/117/251 43/116/252
f 48/197/253 10/175/254 11/205/255
f 48/197/256 45/190/257 10/175/258
f 45/24/259 14/7/260 10/6/261
f 46/25/262 14/7/263 45/24/264
f 14/178/265 46/195/266 47/202/267
f 15/208/268 14/178/269 47/202/270
f 15/65/271 48/51/272 11/64/273
f 15/65/274 47/52/275 48/51/276
f 45/14/277 52/71/278 49/13/279
f 45/14/280 48/72/281 52/71/282
f 50/106/283 45/78/284 49/77/285
f 46/107/286 45/78/287 50/106/288
f 47/52/289 50/18/290 51/45/291
f 47/52/292 46/25/293 50/18/294
f 48/220/295 51/221/296 52/219/297
f 48/220/298 47/222/299 51/221/300
f 56/203/301 14/178/302 15/208/303
f 56/203/304 53/196/305 14/178/306
f 53/25/307 18/8/308 14/7/309
f 54/26/310 18/8/311 53/25/312
f 19/207/313 54/193/314 55/200/315
f 19/207/316 18/177/317 54/193/318
f 19/66/319 56/52/320 15/65/321
f 19/66/322 55/53/323 56/52/324
f 53/188/325 60/217/326 57/187/327
f 53/188/328 56/218/329 60/217/330
f 58/128/331 53/123/332 57/122/333
f 54/129/334 53/123/335 58/128/336
f 55/53/337 58/20/338 59/47/339
f 55/53/340 54/26/341 58/20/342
f 56/113/343 59/118/344 60/112/345
f 56/113/346 55/119/347 59/118/348
f 64/201/349 18/177/350 19/207/351
f 64/201/352 61/194/353 18/177/354
f 61/26/355 22/9/356 18/8/357
f 62/27/358 22/9/359 61/26/360
f 23/159/361 62/102/362 63/154/363
f 23/159/364 22/83/365 62/102/366
f 23/67/367 64/53/368 19/66/369
f 23/67/370 63/54/371 64/53/372
f 61/12/373 68/69/374 65/11/375
f 61/12/376 64/70/377 68/69/378
f 66/108/379 61/80/380 65/79/381
f 62/109/382 61/80/383 66/108/384
f 63/54/385 66/21/386 67/48/387
f 63/54/388 62/27/389 66/21/390
f 64/42/391 67/73/392 68/41/393
f 64/42/394 63/74/395 67/73/396
f 72/155/397 22/83/398 23/159/399
f 72/155/400 69/103/401 22/83/402
f 69/27/403 26/10/404 22/9/405
f 70/28/406 26/10/407 69/27/408
f 27/158/409 70/101/410 71/153/411
f 27/158/412 26/82/413 70/101/414
f 27/68/415 72/54/416 23/67/417
f 27/68/418 71/55/419 72/54/420
f 69/98/421 76/173/422 73/97/423
f 69/98/424 72/174/425 76/173/426
f 74/33/427 69/30/428 73/29/429
f 70/34/430 69/30/431 74/33/432
f 71/55/433 74/21/434 75/48/435
f 71/55/436 70/28/437 74/21/438
f 72/36/439 75/39/440 76/35/441
f 72/36/442 71/40/443 75/39/444
