####
#
#	OBJ File Generated by LightWave3D
#	LightWave3D OBJ Export v2.3
#
####
o clock.obj
mtllib clock.mtl
g default
v -1.06349 3.71429 -0
v 0.436508 3.31236 -0
v 1.53458 2.21429 -0
v 1.93651 0.714286 -0
v 1.53458 -0.785714 -0
v 0.436508 -1.88379 -0
v -1.06349 -2.28571 -0
v -2.56349 -1.88379 -0
v -3.66157 -0.785714 -0
v -4.06349 0.714286 -0
v -3.66157 2.21429 -0
v -2.56349 3.31236 -0
v -1.06349 3.71429 -0.634921
v 0.436508 3.31236 -0.634921
v 1.53458 2.21429 -0.634921
v 1.93651 0.714286 -0.634921
v 1.53458 -0.785714 -0.634921
v 0.436508 -1.88379 -0.634921
v -1.06349 -2.28571 -0.634921
v -2.56349 -1.88379 -0.634921
v -3.66157 -0.785714 -0.634921
v -4.06349 0.714286 -0.634921
v -3.66157 2.21429 -0.634921
v -2.56349 3.31236 -0.634921
v -1.06349 3.44429 -0
v 0.301508 3.07854 -0
v 1.30076 2.07929 -0
v 1.66651 0.714286 -0
v 1.30076 -0.650714 -0
v 0.301508 -1.64996 -0
v -1.06349 -2.01571 -0
v -2.42849 -1.64996 -0
v -3.42774 -0.650714 -0
v -3.79349 0.714286 -0
v -3.42774 2.07929 -0
v -2.42849 3.07854 -0
v -1.06349 3.44429 -0.3367
v 0.301508 3.07854 -0.3367
v 1.30076 2.07929 -0.3367
v 1.66651 0.714286 -0.3367
v 1.30076 -0.650714 -0.3367
v 0.301508 -1.64996 -0.3367
v -1.06349 -2.01571 -0.3367
v -2.42849 -1.64996 -0.3367
v -3.42774 -0.650714 -0.3367
v -3.79349 0.714286 -0.3367
v -3.42774 2.07929 -0.3367
v -2.42849 3.07854 -0.3367
vt 0.000802934 0.75506
vt 0.0131579 0.25
vt 0.0306299 0.643744
vt 0.0306299 0.866376
vt 0.0448887 0.131579
vt 0.0448887 0.368421
vt 0.112119 0.562256
vt 0.112119 0.947865
vt 0.131579 0.0448887
vt 0.131579 0.455111
vt 0.223435 0.532429
vt 0.223435 0.977692
vt 0.25 0.0131579
vt 0.25 0.486842
vt 0.33475 0.562256
vt 0.33475 0.947865
vt 0.368421 0.0448887
vt 0.368421 0.455111
vt 0.416239 0.643744
vt 0.416239 0.866376
vt 0.446066 0.75506
vt 0.455111 0.131579
vt 0.455111 0.368421
vt 0.486842 0.25
vt 0.509259 0.513072
vt 0.509259 0.601469
vt 0.509259 0.722222
vt 0.509259 0.842975
vt 0.509259 0.931373
vt 0.513158 0.25
vt 0.534474 0.25
vt 0.544889 0.131579
vt 0.544889 0.368421
vt 0.546296 0.513072
vt 0.546296 0.601469
vt 0.546296 0.722222
vt 0.546296 0.842975
vt 0.546296 0.931373
vt 0.563349 0.142237
vt 0.563349 0.357763
vt 0.564815 0.513072
vt 0.564815 0.601469
vt 0.564815 0.722222
vt 0.564815 0.842975
vt 0.564815 0.931373
vt 0.601852 0.513072
vt 0.601852 0.601469
vt 0.601852 0.722222
vt 0.601852 0.842975
vt 0.601852 0.931373
vt 0.62037 0.512963
vt 0.62037 0.589666
vt 0.62037 0.694444
vt 0.62037 0.799223
vt 0.62037 0.875926
vt 0.631579 0.0448887
vt 0.631579 0.455111
vt 0.642237 0.0633487
vt 0.642237 0.436651
vt 0.657407 0.512963
vt 0.657407 0.589666
vt 0.657407 0.694444
vt 0.657407 0.799223
vt 0.657407 0.875926
vt 0.675926 0.512963
vt 0.675926 0.589666
vt 0.675926 0.694444
vt 0.675926 0.799223
vt 0.675926 0.875926
vt 0.712963 0.512963
vt 0.712963 0.589666
vt 0.712963 0.694444
vt 0.712963 0.799223
vt 0.712963 0.875926
vt 0.734568 0.62037
vt 0.734568 0.657407
vt 0.734568 0.675926
vt 0.734568 0.712963
vt 0.734848 0.509259
vt 0.734848 0.546296
vt 0.734848 0.564815
vt 0.734848 0.601852
vt 0.75 0.0131579
vt 0.75 0.0344737
vt 0.75 0.465526
vt 0.75 0.486842
vt 0.833333 0.62037
vt 0.833333 0.657407
vt 0.833333 0.675926
vt 0.833333 0.712963
vt 0.857763 0.0633487
vt 0.857763 0.436651
vt 0.861111 0.509259
vt 0.861111 0.546296
vt 0.861111 0.564815
vt 0.861111 0.601852
vt 0.868421 0.0448887
vt 0.868421 0.455111
vt 0.932099 0.62037
vt 0.932099 0.657407
vt 0.932099 0.675926
vt 0.932099 0.712963
vt 0.936651 0.142237
vt 0.936651 0.357763
vt 0.955111 0.131579
vt 0.955111 0.368421
vt 0.965526 0.25
vt 0.986842 0.25
vt 0.987374 0.509259
vt 0.987374 0.546296
vt 0.987374 0.564815
vt 0.987374 0.601852
vn 0.444037 -0.769094 0.459701
vn 0.769094 -0.444037 0.459701
vn 0.888074 0 0.459701
vn 0.769094 0.444037 0.459701
vn 0.444037 0.769094 0.459701
vn 0 0.888074 0.459701
vn -0.444037 0.769094 0.459701
vn -0.769094 0.444037 0.459701
vn -0.888074 -1.37002e-008 0.459701
vn -0.769094 -0.444037 0.459701
vn -0.444037 -0.769094 0.459701
vn 0 -0.888074 0.459701
vn 0.444037 0.769095 -0.459701
vn 0 0.888074 -0.459701
vn 0 0.694747 0.719255
vn 0.347373 0.601668 0.719255
vn 0.769094 0.444037 -0.459701
vn 0.444037 0.769095 -0.459701
vn 0.347373 0.601668 0.719255
vn 0.601668 0.347373 0.719255
vn 0.888074 1.37002e-008 -0.459701
vn 0.769094 0.444037 -0.459701
vn 0.601668 0.347373 0.719255
vn 0.694747 1.07177e-008 0.719255
vn 0.769095 -0.444037 -0.459701
vn 0.888074 1.37002e-008 -0.459701
vn 0.694747 1.07177e-008 0.719255
vn 0.601668 -0.347373 0.719255
vn 0.444037 -0.769095 -0.459701
vn 0.769095 -0.444037 -0.459701
vn 0.601668 -0.347373 0.719255
vn 0.347373 -0.601668 0.719255
vn 0 -0.888074 -0.459701
vn 0.444037 -0.769095 -0.459701
vn 0.347373 -0.601668 0.719255
vn 0 -0.694747 0.719255
vn -0.347373 -0.601668 0.719255
vn -0.444037 -0.769095 -0.459701
vn 0 -0.888074 -0.459701
vn 0 -0.694747 0.719255
vn -0.601668 -0.347373 0.719255
vn -0.769094 -0.444037 -0.459701
vn -0.444037 -0.769095 -0.459701
vn -0.347373 -0.601668 0.719255
vn -0.694747 0 0.719255
vn -0.888074 0 -0.459701
vn -0.769094 -0.444037 -0.459701
vn -0.601668 -0.347373 0.719255
vn -0.601668 0.347373 0.719255
vn -0.769094 0.444037 -0.459701
vn -0.888074 0 -0.459701
vn -0.694747 0 0.719255
vn -0.347373 0.601668 0.719255
vn -0.444037 0.769095 -0.459701
vn -0.769094 0.444037 -0.459701
vn -0.601668 0.347373 0.719255
vn 0 0.694747 0.719255
vn 0 0.888074 -0.459701
vn -0.444037 0.769095 -0.459701
vn -0.347373 0.601668 0.719255
vn 0.444037 0.769095 -0.459701
vn 0.769094 0.444037 -0.459701
vn 0.888074 1.37002e-008 -0.459701
vn 0.769095 -0.444037 -0.459701
vn 0.444037 -0.769095 -0.459701
vn 0 -0.888074 -0.459701
vn -0.444037 -0.769095 -0.459701
vn -0.769094 -0.444037 -0.459701
vn -0.888074 0 -0.459701
vn -0.769094 0.444037 -0.459701
vn -0.444037 0.769095 -0.459701
vn 0 0.888074 -0.459701
vn 0.347373 0.601668 0.719255
vn 0 0.694747 0.719255
vn 0 -0.694747 0.719255
vn -0.347373 -0.601668 0.719255
vn 0.601668 0.347373 0.719255
vn 0.347373 0.601668 0.719255
vn -0.347373 -0.601668 0.719255
vn -0.601668 -0.347373 0.719255
vn 0.694747 1.07177e-008 0.719255
vn 0.601668 0.347373 0.719255
vn -0.601668 -0.347373 0.719255
vn -0.694747 -1.07177e-008 0.719255
vn 0.601668 -0.347373 0.719255
vn 0.694747 1.07177e-008 0.719255
vn -0.694747 -1.07177e-008 0.719255
vn -0.601668 0.347373 0.719255
vn 0.347373 -0.601668 0.719255
vn 0.601668 -0.347373 0.719255
vn -0.601668 0.347373 0.719255
vn -0.347373 0.601668 0.719255
vn 0 -0.694747 0.719255
vn 0.347373 -0.601668 0.719255
vn -0.347373 0.601668 0.719255
vn 0 0.694747 0.719255
vn 0.347373 0.601668 0.719255
vn -0.347373 -0.601668 0.719255
vn 0 -0.694747 0.719255
vn 0 0.694747 0.719255
vn 0.601668 0.347373 0.719255
vn -0.601668 -0.347373 0.719255
vn -0.347373 -0.601668 0.719255
vn 0.347373 0.601668 0.719255
vn 0.694747 0 0.719255
vn -0.694747 0 0.719255
vn -0.601668 -0.347373 0.719255
vn 0.601668 0.347373 0.719255
vn 0.601668 -0.347373 0.719255
vn -0.601668 0.347373 0.719255
vn -0.694747 0 0.719255
vn 0.694747 0 0.719255
vn 0.347373 -0.601668 0.719255
vn -0.347373 0.601668 0.719255
vn -0.601668 0.347373 0.719255
vn 0.601668 -0.347373 0.719255
vn 0 -0.694747 0.719255
vn 0 0.694747 0.719255
vn -0.347373 0.601668 0.719255
vn 0.347373 -0.601668 0.719255
vn -0.347373 -0.601668 0.719255
vn 0 -0.694747 0.719255
vn 0 -0.888074 0.459701
vn -0.444037 -0.769094 0.459701
vn -0.601668 -0.347373 0.719255
vn -0.347373 -0.601668 0.719255
vn -0.444037 -0.769094 0.459701
vn -0.769094 -0.444037 0.459701
vn -0.694747 -1.07177e-008 0.719255
vn -0.601668 -0.347373 0.719255
vn -0.769094 -0.444037 0.459701
vn -0.888074 -1.37002e-008 0.459701
vn -0.601668 0.347373 0.719255
vn -0.694747 -1.07177e-008 0.719255
vn -0.888074 -1.37002e-008 0.459701
vn -0.769094 0.444037 0.459701
vn -0.347373 0.601668 0.719255
vn -0.601668 0.347373 0.719255
vn -0.769094 0.444037 0.459701
vn -0.444037 0.769094 0.459701
vn 0 0.694747 0.719255
vn -0.347373 0.601668 0.719255
vn -0.444037 0.769094 0.459701
vn 0 0.888074 0.459701
vn 0.444037 0.769094 0.459701
vn 0.347373 0.601668 0.719255
vn 0 0.694747 0.719255
vn 0 0.888074 0.459701
vn 0.769094 0.444037 0.459701
vn 0.601668 0.347373 0.719255
vn 0.347373 0.601668 0.719255
vn 0.444037 0.769094 0.459701
vn 0.888074 0 0.459701
vn 0.694747 0 0.719255
vn 0.601668 0.347373 0.719255
vn 0.769094 0.444037 0.459701
vn 0.769094 -0.444037 0.459701
vn 0.601668 -0.347373 0.719255
vn 0.694747 0 0.719255
vn 0.888074 0 0.459701
vn 0.444037 -0.769094 0.459701
vn 0.347373 -0.601668 0.719255
vn 0.601668 -0.347373 0.719255
vn 0.769094 -0.444037 0.459701
vn 0 -0.888074 0.459701
vn 0 -0.694747 0.719255
vn 0.347373 -0.601668 0.719255
vn 0.444037 -0.769094 0.459701
g Default
usemtl Default
s 1
f 48/8/1 47/4/2 46/1/3 45/3/4 44/7/5 43/11/6 42/15/7 41/19/8 40/21/9 39/20/10 38/16/11 37/12/12
f 14/112/13 13/96/14 1/95/15 2/111/16
f 15/37/17 14/38/18 2/29/19 3/28/20
f 16/36/21 15/37/22 3/28/23 4/27/24
f 17/35/25 16/36/26 4/27/27 5/26/28
f 18/34/29 17/35/30 5/26/31 6/25/32
f 19/94/33 18/110/34 6/109/35 7/93/36
f 8/79/37 20/80/38 19/94/39 7/93/40
f 9/42/41 21/47/42 20/46/43 8/41/44
f 10/43/45 22/48/46 21/47/47 9/42/48
f 11/44/49 23/49/50 22/48/51 10/43/52
f 12/45/53 24/50/54 23/49/55 11/44/56
f 1/95/57 13/96/58 24/82/59 12/81/60
f 14/18/61 15/23/62 16/24/63 17/22/64 18/17/65 19/13/66 20/9/67 21/5/68 22/2/69 23/6/70 24/10/71 13/14/72
f 2/98/73 1/86/74 25/85/75 26/92/76
f 3/106/77 2/98/78 26/92/79 27/104/80
f 4/108/81 3/106/82 27/104/83 28/107/84
f 5/105/85 4/108/86 28/107/87 29/103/88
f 6/97/89 5/105/90 29/103/91 30/91/92
f 7/83/93 6/97/94 30/91/95 31/84/96
f 32/58/97 8/56/98 7/83/99 31/84/100
f 33/39/101 9/32/102 8/56/103 32/58/104
f 34/31/105 10/30/106 9/32/107 33/39/108
f 35/40/109 11/33/110 10/30/111 34/31/112
f 36/59/113 12/57/114 11/33/115 35/40/116
f 25/85/117 1/86/118 12/57/119 36/59/120
f 26/99/121 25/87/122 37/88/123 38/100/124
f 27/68/125 26/69/126 38/74/127 39/73/128
f 28/67/129 27/68/130 39/73/131 40/72/132
f 29/66/133 28/67/134 40/72/135 41/71/136
f 30/65/137 29/66/138 41/71/139 42/70/140
f 31/89/141 30/101/142 42/102/143 43/90/144
f 44/78/145 32/77/146 31/89/147 43/90/148
f 45/61/149 33/52/150 32/51/151 44/60/152
f 46/62/153 34/53/154 33/52/155 45/61/156
f 47/63/157 35/54/158 34/53/159 46/62/160
f 48/64/161 36/55/162 35/54/163 47/63/164
f 37/88/165 25/87/166 36/75/167 48/76/168
