####
#
#	OBJ File Generated by LightWave3D
#	LightWave3D OBJ Export v2.3
#
####
o WardRoomPoster6.obj
mtllib WardRoomPoster6.mtl
g default
v -1.91063 -4.09524 -0
v -1.91063 2.42857 -0
v 3.38683 2.42857 -0
v 3.38683 -4.09524 -0
v -1.91063 -4.09524 -0.269841
v -1.91063 2.42857 -0.269841
v 3.38683 2.42857 -0.269841
v 3.38683 -4.09524 -0.269841
v -1.64576 -3.76905 -0
v -1.64576 2.10238 -0
v 3.12195 2.10238 -0
v 3.12195 -3.76905 -0
v -1.64576 -3.76905 -0.1289
v -1.64576 2.10238 -0.1289
v 3.12195 2.10238 -0.1289
v 3.12195 -3.76905 -0.1289
vt 0.00639758 0.00189026
vt 0.00639758 0.743351
vt 0.023571 0.865788
vt 0.0235711 0.965336
vt 0.0244599 0.82411
vt 0.0244599 0.841365
vt 0.0813488 0.865788
vt 0.0813488 0.965336
vt 0.0929043 0.865788
vt 0.0929044 0.965336
vt 0.150682 0.965336
vt 0.150682 0.865788
vt 0.163063 0.820659
vt 0.163063 0.803404
vt 0.163126 0.845095
vt 0.163126 0.965323
vt 0.357793 0.82411
vt 0.357793 0.841365
vt 0.371127 0.82411
vt 0.371127 0.841365
vt 0.42719 0.803404
vt 0.42719 0.820659
vt 0.440396 0.803404
vt 0.440396 0.820659
vt 0.49646 0.845095
vt 0.49646 0.965323
vt 0.509793 0.845095
vt 0.509793 0.965323
vt 0.52646 0.851106
vt 0.52646 0.959312
vt 0.70446 0.82411
vt 0.70446 0.841365
vt 0.704523 0.803404
vt 0.704523 0.820659
vt 0.82646 0.851106
vt 0.82646 0.959312
vt 0.843126 0.845095
vt 0.843126 0.965323
vt 0.855571 0.845095
vt 0.855571 0.965323
vt 0.913349 0.845095
vt 0.913349 0.965323
vt 0.924904 0.845095
vt 0.924904 0.965323
vt 0.982682 0.845095
vt 0.982682 0.965323
vt 0.994227 0.00189026
vt 0.994227 0.743351
vn -0.57735 0.57735 0.57735
vn -0.57735 -0.57735 0.57735
vn 0.57735 -0.57735 0.57735
vn 0.57735 0.57735 0.57735
vn -0.408248 0.408248 0.816497
vn -0.57735 0.57735 -0.57735
vn -0.57735 -0.57735 -0.57735
vn -0.408248 -0.408248 0.816497
vn 0.408248 0.408248 0.816497
vn 0.57735 0.57735 -0.57735
vn -0.57735 0.57735 -0.57735
vn -0.408248 0.408248 0.816497
vn 0.57735 -0.57735 -0.57735
vn 0.57735 0.57735 -0.57735
vn 0.408248 0.408248 0.816497
vn 0.408248 -0.408248 0.816497
vn -0.57735 -0.57735 -0.57735
vn 0.57735 -0.57735 -0.57735
vn 0.408248 -0.408248 0.816497
vn -0.408248 -0.408248 0.816497
vn -0.57735 0.57735 -0.57735
vn 0.57735 0.57735 -0.57735
vn 0.57735 -0.57735 -0.57735
vn -0.57735 -0.57735 -0.57735
vn 0.408248 -0.408248 0.816497
vn -0.408248 0.408248 0.816497
vn -0.408248 -0.408248 0.816497
vn 0.408248 0.408248 0.816497
vn -0.408248 -0.408248 0.816497
vn 0.408248 0.408248 0.816497
vn -0.408248 0.408248 0.816497
vn 0.408248 -0.408248 0.816497
vn 0.408248 -0.408248 0.816497
vn 0.408248 0.408248 0.816497
vn -0.408248 -0.408248 0.816497
vn -0.408248 0.408248 0.816497
vn -0.408248 -0.408248 0.816497
vn 0.408248 -0.408248 0.816497
vn -0.408248 0.408248 0.816497
vn 0.408248 0.408248 0.816497
vn 0.57735 -0.57735 0.57735
vn 0.408248 -0.408248 0.816497
vn 0.408248 0.408248 0.816497
vn 0.57735 0.57735 0.57735
vn -0.57735 -0.57735 0.57735
vn -0.408248 -0.408248 0.816497
vn 0.408248 -0.408248 0.816497
vn 0.57735 -0.57735 0.57735
vn -0.408248 0.408248 0.816497
vn -0.408248 -0.408248 0.816497
vn -0.57735 -0.57735 0.57735
vn -0.57735 0.57735 0.57735
vn 0.408248 0.408248 0.816497
vn -0.408248 0.408248 0.816497
vn -0.57735 0.57735 0.57735
vn 0.57735 0.57735 0.57735
g Default
usemtl Default
s off
f 16/1/1 15/47/2 14/48/3 13/2/4
f 2/45/5 6/43/6 5/44/7 1/46/8
f 3/20/9 7/19/10 6/31/11 2/32/12
f 8/40/13 7/39/14 3/41/15 4/42/16
f 5/17/17 8/5/18 4/6/19 1/18/20
f 6/25/21 7/15/22 8/16/23 5/26/24
f 10/35/25 2/37/26 1/38/27 9/36/28
f 11/29/29 3/27/30 2/37/31 10/35/32
f 4/28/33 3/27/34 11/29/35 12/30/36
f 1/38/37 4/28/38 12/30/39 9/36/40
f 14/3/41 10/7/42 9/8/43 13/4/44
f 15/23/45 11/24/46 10/34/47 14/33/48
f 12/11/49 11/12/50 15/9/51 16/10/52
f 9/22/53 12/13/54 16/14/55 13/21/56
