####
#
#	OBJ File Generated by LightWave3D
#	LightWave3D OBJ Export v2.3
#
####
o doubleBulletinBoard.obj
mtllib doubleBulletinBoard.mtl
g default
v -3.98496 -4.09524 -0
v -3.98496 2.42857 -0
v -3.98496 -4.09524 -0.269841
v -3.98496 2.42857 -0.269841
v -3.72009 -3.76905 -0
v -3.72009 2.10238 -0
v 1.04763 2.10238 -0
v 1.04763 -3.76905 -0
v -3.72009 -3.76905 -0.1289
v -3.72009 2.10238 -0.1289
v 1.04763 2.10238 -0.1289
v 1.04763 -3.76905 -0.1289
v 6.60984 2.42857 -0
v 6.60984 -4.09524 -0
v 6.60984 2.42857 -0.269841
v 6.60984 -4.09524 -0.269841
v 1.57725 -3.76905 -0
v 1.57725 2.10238 -0
v 6.34497 2.10238 -0
v 6.34497 -3.76905 -0
v 1.57725 -3.76905 -0.1289
v 1.57725 2.10238 -0.1289
v 6.34497 2.10238 -0.1289
v 6.34497 -3.76905 -0.1289
v 1.31238 2.42857 -0.269841
v 1.31238 -4.09524 -0.269841
v 1.31238 2.42857 -0
v 1.31238 -4.09524 -0
vt 0.0150199 0.993978
vt 0.0188065 0.00842416
vt 0.0439215 0.952678
vt 0.0477081 0.0507881
vt 0.0892041 0.0877301
vt 0.0892041 0.916383
vt 0.171536 0.00838535
vt 0.171536 0.0139409
vt 0.205977 0.0274898
vt 0.205977 0.0528867
vt 0.206498 0.0207438
vt 0.206498 0.0262993
vt 0.206672 0.0143611
vt 0.206672 0.0199166
vt 0.247644 0.0274898
vt 0.247644 0.0528867
vt 0.255977 0.0274898
vt 0.255977 0.0528867
vt 0.297644 0.0274898
vt 0.297644 0.0528867
vt 0.305977 0.0274898
vt 0.305977 0.0528867
vt 0.347123 0.0207438
vt 0.347123 0.0262993
vt 0.347644 0.0274898
vt 0.347644 0.0528867
vt 0.355367 0.0214736
vt 0.355367 0.0535249
vt 0.376813 0.0143611
vt 0.376813 0.0199166
vt 0.397034 0.0214736
vt 0.397034 0.0535249
vt 0.406628 0.0214214
vt 0.406628 0.0269769
vt 0.411921 0.00838535
vt 0.411921 0.0139409
vt 0.412946 0.0274898
vt 0.412946 0.0528867
vt 0.414654 0.00838798
vt 0.414654 0.0139436
vt 0.428827 0.0877301
vt 0.428827 0.916383
vt 0.454613 0.0274898
vt 0.454613 0.0528867
vt 0.460697 0.027667
vt 0.460697 0.0530638
vt 0.466999 0.0507881
vt 0.466999 0.952678
vt 0.501749 0.00842416
vt 0.501749 0.993978
vt 0.502364 0.027667
vt 0.502364 0.0530638
vt 0.506317 0.0278017
vt 0.506317 0.0531985
vt 0.536503 0.0507881
vt 0.536503 0.952678
vt 0.546949 0.0143611
vt 0.546949 0.0199166
vt 0.547253 0.0214214
vt 0.547253 0.0269769
vt 0.547983 0.0278017
vt 0.547983 0.0531985
vt 0.556672 0.0143611
vt 0.556672 0.0199166
vt 0.556672 0.0211131
vt 0.556672 0.0531644
vt 0.577757 0.0837441
vt 0.577757 0.916623
vt 0.655039 0.00838798
vt 0.655039 0.0139436
vt 0.65606 0.00835984
vt 0.65606 0.0139155
vt 0.726812 0.0143611
vt 0.726812 0.0199166
vt 0.726812 0.0211131
vt 0.726812 0.0531644
vt 0.896444 0.00835984
vt 0.896444 0.0139155
vt 0.896949 0.0143611
vt 0.896949 0.0199166
vt 0.896949 0.0211131
vt 0.896949 0.0531644
vt 0.920464 0.0837441
vt 0.920464 0.916623
vt 0.961979 0.952678
vt 0.962493 0.0507881
vt 0.99088 0.993978
vt 0.991395 0.00842416
vn -0.57735 0.57735 0.57735
vn -0.57735 -0.57735 0.57735
vn 0.57735 -0.57735 0.57735
vn 0.57735 0.57735 0.57735
vn -0.408248 0.408248 0.816497
vn -0.57735 0.57735 -0.57735
vn -0.57735 -0.57735 -0.57735
vn -0.408248 -0.408248 0.816497
vn 0 0.447214 0.894427
vn 0 0.707107 -0.707107
vn -0.57735 0.57735 -0.57735
vn -0.408248 0.408248 0.816497
vn -0.57735 -0.57735 -0.57735
vn 0 -0.707107 -0.707107
vn 0 -0.447214 0.894427
vn -0.408248 -0.408248 0.816497
vn -0.57735 0.57735 -0.57735
vn 0 0.707107 -0.707107
vn 0 -0.707107 -0.707107
vn -0.57735 -0.57735 -0.57735
vn 0.408248 -0.408248 0.816497
vn -0.408248 0.408248 0.816497
vn -0.408248 -0.408248 0.816497
vn 0.408248 0.408248 0.816497
vn -0.408248 -0.408248 0.816497
vn 0 0.447214 0.894427
vn -0.408248 0.408248 0.816497
vn 0.408248 -0.408248 0.816497
vn 0 -0.447214 0.894427
vn 0 0.447214 0.894427
vn -0.408248 -0.408248 0.816497
vn -0.408248 0.408248 0.816497
vn -0.408248 -0.408248 0.816497
vn 0 -0.447214 0.894427
vn -0.408248 0.408248 0.816497
vn 0.408248 0.408248 0.816497
vn 0.57735 -0.57735 0.57735
vn 0.408248 -0.408248 0.816497
vn 0.408248 0.408248 0.816497
vn 0.57735 0.57735 0.57735
vn -0.57735 -0.57735 0.57735
vn -0.408248 -0.408248 0.816497
vn 0.408248 -0.408248 0.816497
vn 0.57735 -0.57735 0.57735
vn -0.408248 0.408248 0.816497
vn -0.408248 -0.408248 0.816497
vn -0.57735 -0.57735 0.57735
vn -0.57735 0.57735 0.57735
vn 0.408248 0.408248 0.816497
vn -0.408248 0.408248 0.816497
vn -0.57735 0.57735 0.57735
vn 0.57735 0.57735 0.57735
vn -0.57735 0.57735 0.57735
vn -0.57735 -0.57735 0.57735
vn 0.57735 -0.57735 0.57735
vn 0.57735 0.57735 0.57735
vn 0 0.447214 0.894427
vn 0 0.707107 -0.707107
vn 0 -0.707107 -0.707107
vn 0 -0.447214 0.894427
vn 0.57735 -0.57735 -0.57735
vn 0.57735 0.57735 -0.57735
vn 0.408248 0.408248 0.816497
vn 0.408248 -0.408248 0.816497
vn 0 0.707107 -0.707107
vn 0.57735 0.57735 -0.57735
vn 0.57735 -0.57735 -0.57735
vn 0 -0.707107 -0.707107
vn 0.408248 -0.408248 0.816497
vn 0 0.447214 0.894427
vn 0 -0.447214 0.894427
vn 0.408248 0.408248 0.816497
vn -0.408248 -0.408248 0.816497
vn 0.408248 0.408248 0.816497
vn 0 0.447214 0.894427
vn 0.408248 -0.408248 0.816497
vn 0.408248 -0.408248 0.816497
vn 0.408248 0.408248 0.816497
vn -0.408248 -0.408248 0.816497
vn -0.408248 0.408248 0.816497
vn 0 -0.447214 0.894427
vn 0.408248 -0.408248 0.816497
vn -0.408248 0.408248 0.816497
vn 0.408248 0.408248 0.816497
vn 0.57735 -0.57735 0.57735
vn 0.408248 -0.408248 0.816497
vn 0.408248 0.408248 0.816497
vn 0.57735 0.57735 0.57735
vn -0.57735 -0.57735 0.57735
vn -0.408248 -0.408248 0.816497
vn 0.408248 -0.408248 0.816497
vn 0.57735 -0.57735 0.57735
vn -0.408248 0.408248 0.816497
vn -0.408248 -0.408248 0.816497
vn -0.57735 -0.57735 0.57735
vn -0.57735 0.57735 0.57735
vn 0.408248 0.408248 0.816497
vn -0.408248 0.408248 0.816497
vn -0.57735 0.57735 0.57735
vn 0.57735 0.57735 0.57735
vn 0 -0.707107 -0.707107
vn 0.57735 -0.57735 -0.57735
vn 0.408248 -0.408248 0.816497
vn 0 -0.447214 0.894427
vn 0 -0.707107 -0.707107
vn 0 0.707107 -0.707107
vn 0 0.447214 0.894427
vn 0 -0.447214 0.894427
vn 0.408248 0.408248 0.816497
vn 0.57735 0.57735 -0.57735
vn 0 0.707107 -0.707107
vn 0 0.447214 0.894427
g Default
usemtl Default
s off
f 12/41/1 11/42/2 10/6/3 9/5/4
f 2/71/5 4/72/6 3/78/7 1/77/8
f 27/74/9 25/73/10 4/79/11 2/80/12
f 3/57/13 26/29/14 28/30/15 1/58/16
f 4/81/17 25/75/18 26/76/19 3/82/20
f 6/3/21 2/1/22 1/2/23 5/4/24
f 7/48/25 27/50/26 2/1/27 6/3/28
f 28/49/29 27/50/30 7/48/31 8/47/32
f 1/2/33 28/49/34 8/47/35 5/4/36
f 10/17/37 6/19/38 5/20/39 9/18/40
f 11/11/41 7/12/42 6/24/43 10/23/44
f 8/44/45 7/43/46 11/37/47 12/38/48
f 5/60/49 8/34/50 12/33/51 9/59/52
f 24/83/53 23/84/54 22/68/55 21/67/56
f 27/28/57 25/32/58 26/31/59 28/27/60
f 16/70/61 15/40/62 13/39/63 14/69/64
f 25/75/65 15/65/66 16/66/67 26/76/68
f 18/56/69 27/50/70 28/49/71 17/55/72
f 19/85/73 13/87/74 27/50/75 18/56/76
f 14/88/77 13/87/78 19/85/79 20/86/80
f 28/49/81 14/88/82 20/86/83 17/55/84
f 22/21/85 18/25/86 17/26/87 21/22/88
f 23/54/89 19/62/90 18/61/91 22/53/92
f 20/16/93 19/15/94 23/9/95 24/10/96
f 17/51/97 20/52/98 24/46/99 21/45/100
f 26/29/101 16/13/102 14/14/103 28/30/104
f 26/36/105 25/8/106 27/7/107 28/35/108
f 13/64/109 15/63/110 25/73/111 27/74/112
