####
#
#	OBJ File Generated by LightWave3D
#	LightWave3D OBJ Export v2.3
#
####
o display_case.obj
mtllib display_case.mtl
g default
v -5.85484 4.14 3.37175e-007
v 5.85484 4.14 -3.37175e-007
v -3.37175e-007 4.14 5.85484
v -4.06331 -2.95658 3.37175e-007
v 4.06331 -2.95658 -3.37175e-007
v -3.37175e-007 -2.95658 5.85484
v -5.21461 4.14 0.265194
v 5.21461 4.14 0.265193
v -3.37175e-007 4.14 5.4798
v -5.21461 8.1224 0.265194
v 5.21461 8.1224 0.265193
v -3.37175e-007 8.1224 5.4798
vt 0.000968645 0.34424
vt 0.000968645 0.67243
vt 0.00106733 0.673638
vt 0.00106733 0.99912
vt 0.00880492 0.186104
vt 0.00880492 0.331515
vt 0.00886837 0.334702
vt 0.059974 0.189291
vt 0.191207 0.186104
vt 0.191207 0.331515
vt 0.198503 0.186104
vt 0.198503 0.331515
vt 0.291796 0.189291
vt 0.342902 0.334702
vt 0.380904 0.186104
vt 0.380904 0.331515
vt 0.654757 0.673638
vt 0.654757 0.99912
vt 0.658668 0.34424
vt 0.658668 0.67243
vt 0.740207 0.470349
vt 0.740207 0.617803
vt 0.742736 0.798534
vt 0.742736 0.989295
vt 0.747455 0.808964
vt 0.747455 0.978865
vt 0.756415 0.575215
vt 0.756415 0.765976
vt 0.840231 0.893914
vt 0.844373 0.544076
vt 0.846903 0.893914
vt 0.860581 0.670596
vt 0.867184 0.576693
vt 0.867184 0.767454
vt 0.949723 0.576693
vt 0.949723 0.767454
vn -2.58899e-008 0.86872 0.495304
vn -0.372669 0.907247 -0.194988
vn -0.602431 -0.733296 -0.315204
vn -3.92995e-008 -0.659337 0.751848
vn -0.372669 0.907247 -0.194988
vn 0.372669 0.907247 -0.194988
vn 0.602431 -0.733296 -0.315204
vn -0.602431 -0.733296 -0.315204
vn 0.602431 -0.733296 -0.315204
vn 0.372669 0.907247 -0.194988
vn -2.58899e-008 0.86872 0.495304
vn -3.92995e-008 -0.659337 0.751848
vn 3.44127e-008 0.57735 0.816497
vn 0.561517 0.794105 -0.232588
vn -0.561517 0.794105 -0.232588
vn 0.602431 -0.733296 -0.315204
vn -3.92995e-008 -0.659337 0.751848
vn -0.602431 -0.733296 -0.315204
vn 2.43335e-008 0.816497 0.57735
vn -0.330201 0.933949 -0.136774
vn -0.372669 0.907247 -0.194988
vn -2.58899e-008 0.86872 0.495304
vn 0.330201 0.933949 -0.136774
vn 0.372669 0.907247 -0.194988
vn -0.372669 0.907247 -0.194988
vn -0.330201 0.933949 -0.136774
vn 0.372669 0.907247 -0.194988
vn 0.330201 0.933949 -0.136774
vn 2.43335e-008 0.816497 0.57735
vn -2.58899e-008 0.86872 0.495304
vn 3.44127e-008 0.57735 0.816497
vn -0.561517 0.794105 -0.232588
vn -0.330201 0.933949 -0.136774
vn 2.43335e-008 0.816497 0.57735
vn -0.561517 0.794105 -0.232588
vn 0.561517 0.794105 -0.232588
vn 0.330201 0.933949 -0.136774
vn -0.330201 0.933949 -0.136774
vn 0.330201 0.933949 -0.136774
vn 0.561517 0.794105 -0.232588
vn 3.44127e-008 0.57735 0.816497
vn 2.43335e-008 0.816497 0.57735
g Default
usemtl Default
s off
f 3/6/1 1/10/2 4/9/3 6/5/4
f 1/7/5 2/14/6 5/13/7 4/8/8
f 5/15/9 2/16/10 3/12/11 6/11/12
g glass
usemtl glass
s off
f 12/32/13 11/28/14 10/27/15
g Default
usemtl Default
s off
f 5/22/16 6/30/17 4/21/18
f 9/29/19 7/25/20 1/23/21 3/31/22
f 8/26/23 2/24/24 1/23/25 7/25/26
f 2/24/27 8/26/28 9/29/29 3/31/30
g glass
usemtl glass
s off
f 12/2/31 10/20/32 7/19/33 9/1/34
f 10/33/35 11/34/36 8/36/37 7/35/38
f 8/17/39 11/18/40 12/4/41 9/3/42
