####
#
#	OBJ File Generated by LightWave3D
#	LightWave3D OBJ Export v2.3
#
####
o barber_mirror.obj
mtllib barber_mirror.mtl
g default
v -2.76648 -2.76648 0.131946
v -2.76648 2.76648 0.131946
v 2.76648 2.76648 0.131946
v 2.76648 -2.76648 0.131946
v -2.76648 -2.76648 -0.131946
v -2.76648 2.76648 -0.131946
v 2.76648 2.76648 -0.131946
v 2.76648 -2.76648 -0.131946
v -2.52018 -2.52018 0.131946
v -2.52018 2.52018 0.131946
v 2.52018 2.52018 0.131946
v 2.52018 -2.52018 0.131946
v -2.52018 -2.52018 -0.00879643
v -2.52018 2.52018 -0.00879643
v 2.52018 2.52018 -0.00879643
v 2.52018 -2.52018 -0.00879643
vt 0.00838 0.192778
vt 0.00838 0.98876
vt 0.0142308 0.0419235
vt 0.0142308 0.101923
vt 0.0142313 0.046923
vt 0.0142313 0.0819231
vt 0.0569639 0.0391878
vt 0.0569639 0.0896566
vt 0.0569644 0.0591899
vt 0.0569644 0.0846588
vt 0.0572081 0.0407465
vt 0.0572081 0.084528
vt 0.124351 0.0416667
vt 0.124351 0.0929488
vt 0.168637 0.051282
vt 0.168637 0.102564
vt 0.312606 0.0258975
vt 0.312606 0.0339743
vt 0.312606 0.0879487
vt 0.312606 0.0960255
vt 0.333691 0.0521062
vt 0.333691 0.103388
vt 0.401709 0.0897436
vt 0.401709 0.141026
vt 0.474001 0.0416667
vt 0.474001 0.0929488
vt 0.479021 0.0128205
vt 0.479021 0.0641026
vt 0.518287 0.051282
vt 0.518287 0.102564
vt 0.643547 0.0258975
vt 0.643547 0.0339743
vt 0.643547 0.0879487
vt 0.643547 0.0960255
vt 0.675214 0.0897436
vt 0.675214 0.141026
vt 0.683342 0.0521062
vt 0.683342 0.103388
vt 0.709402 0.0897436
vt 0.709402 0.141026
vt 0.828671 0.0128205
vt 0.828671 0.0641026
vt 0.921913 0.0407465
vt 0.921913 0.084528
vt 0.931495 0.0391878
vt 0.931495 0.0896566
vt 0.931496 0.0591899
vt 0.931496 0.0846588
vt 0.97423 0.046923
vt 0.97423 0.0819231
vt 0.974231 0.0419235
vt 0.974231 0.101923
vt 0.982906 0.0897436
vt 0.982906 0.141026
vt 0.993158 0.192778
vt 0.993158 0.98876
vn 0.333333 -0.666667 0.666667
vn 0.816497 0.408248 0.408248
vn -0.57735 0.57735 0.57735
vn -0.57735 -0.57735 0.57735
vn 0.333333 -0.666667 0.666667
vn -0.57735 0.57735 0.57735
vn -0.534522 0.267261 0.801784
vn -0.666667 -0.666667 -0.333333
vn -0.301511 -0.301511 0.904534
vn -0.534522 0.267261 0.801784
vn -0.333333 0.666667 -0.666667
vn -0.666667 -0.666667 -0.333333
vn -0.333333 0.666667 -0.666667
vn -0.534522 0.267261 0.801784
vn 0.408248 0.408248 0.816497
vn 0.57735 0.57735 -0.57735
vn -0.333333 0.666667 -0.666667
vn 0.408248 0.408248 0.816497
vn 0.666667 -0.333333 -0.666667
vn 0.408248 0.408248 0.816497
vn 0.333333 -0.666667 0.666667
vn 0.57735 0.57735 -0.57735
vn 0.408248 0.408248 0.816497
vn 0.666667 -0.333333 -0.666667
vn -0.666667 -0.666667 -0.333333
vn 0.333333 -0.666667 0.666667
vn -0.301511 -0.301511 0.904534
vn -0.666667 -0.666667 -0.333333
vn 0.666667 -0.333333 -0.666667
vn 0.333333 -0.666667 0.666667
vn -0.333333 0.666667 -0.666667
vn 0.666667 -0.333333 -0.666667
vn -0.666667 -0.666667 -0.333333
vn -0.333333 0.666667 -0.666667
vn 0.57735 0.57735 -0.57735
vn 0.666667 -0.333333 -0.666667
vn -0.235702 0.235702 0.942809
vn -0.301511 -0.301511 0.904534
vn 0.333333 -0.666667 0.666667
vn -0.235702 0.235702 0.942809
vn 0.267261 0.534522 0.801784
vn -0.301511 -0.301511 0.904534
vn 0.267261 0.534522 0.801784
vn -0.534522 0.267261 0.801784
vn -0.301511 -0.301511 0.904534
vn 0.534522 -0.267261 0.801784
vn -0.534522 0.267261 0.801784
vn 0.267261 0.534522 0.801784
vn 0.408248 0.408248 0.816497
vn 0.534522 -0.267261 0.801784
vn -0.57735 -0.57735 0.57735
vn 0.408248 0.408248 0.816497
vn -0.534522 0.267261 0.801784
vn 0.534522 -0.267261 0.801784
vn 0.408248 0.408248 0.816497
vn -0.235702 0.235702 0.942809
vn 0.333333 -0.666667 0.666667
vn 0.408248 0.408248 0.816497
vn -0.57735 -0.57735 0.57735
vn -0.235702 0.235702 0.942809
vn -0.57735 0.57735 0.57735
vn 0.267261 0.534522 0.801784
vn -0.235702 0.235702 0.942809
vn -0.57735 0.57735 0.57735
vn 0.816497 0.408248 0.408248
vn 0.267261 0.534522 0.801784
vn 0.816497 0.408248 0.408248
vn 0.534522 -0.267261 0.801784
vn 0.267261 0.534522 0.801784
vn 0.333333 -0.666667 0.666667
vn 0.534522 -0.267261 0.801784
vn 0.816497 0.408248 0.408248
vn 0.333333 -0.666667 0.666667
vn -0.57735 -0.57735 0.57735
vn 0.534522 -0.267261 0.801784
vn 0.333333 -0.666667 0.666667
vn -0.57735 -0.57735 0.57735
vn -0.57735 -0.57735 0.57735
vn -0.57735 -0.57735 0.57735
vn -0.57735 0.57735 0.57735
vn -0.235702 0.235702 0.942809
vn -0.57735 -0.57735 0.57735
vn -0.57735 -0.57735 0.57735
vn -0.57735 0.57735 0.57735
g Default
usemtl Default
s off
f 14/2/1 13/1/2 16/55/3
f 15/56/4 14/2/5 16/55/6
f 2/13/7 5/26/8 1/25/9
f 2/13/10 6/14/11 5/26/12
f 6/22/13 2/21/14 3/37/15
f 7/38/16 6/22/17 3/37/18
f 8/30/19 3/15/20 4/29/21
f 7/16/22 3/15/23 8/30/24
f 5/28/25 4/41/26 1/27/27
f 5/28/28 8/42/29 4/41/30
f 6/12/31 8/43/32 5/11/33
f 6/12/34 7/44/35 8/43/36
f 12/48/37 1/3/38 4/51/39
f 12/48/40 9/10/41 1/3/42
f 9/46/43 2/5/44 1/49/45
f 10/8/46 2/5/47 9/46/48
f 3/52/49 10/9/50 11/47/51
f 3/52/52 2/4/53 10/9/54
f 3/6/55 12/45/56 4/50/57
f 3/6/58 11/7/59 12/45/60
f 16/36/61 9/23/62 12/35/63
f 16/36/64 13/24/65 9/23/66
f 13/33/67 10/17/68 9/31/69
f 14/19/70 10/17/71 13/33/72
f 14/40/73 11/53/74 10/39/75
f 14/40/76 15/54/77 11/53/78
f 11/18/79 16/34/80 12/32/81
f 11/18/82 15/20/83 16/34/84
