####
#
#	OBJ File Generated by LightWave3D
#	LightWave3D OBJ Export v2.3
#
####
o Bacon.obj
mtllib Bacon.mtl
g default
v -0.84127 -0.100154 4.13689
v 0.84127 -0.100154 4.13689
v 0.849578 0.12245 -0.00596988
v -0.77563 -0.313023 -0.00596988
v -0.84127 0.18556 4.13689
v 0.84127 0.18556 4.13689
v 0.77563 0.246581 -0.00596988
v -0.849578 -0.0370443 -0.00596988
v -0.758255 0.175176 -3.54037
v 0.722904 -0.2217 -3.54037
v 0.758255 -0.0897699 -3.54037
v -0.722905 0.307106 -3.54037
v -0.742601 0.159305 -4.13689
v 0.701412 -0.227617 -4.13689
v 0.742601 -0.0738988 -4.13689
v -0.701412 0.313023 -4.13689
vt 0.00261292 0.0152534
vt 0.00261292 0.0440822
vt 0.00261292 0.0802647
vt 0.00261292 0.114043
vt 0.11539 0.490681
vt 0.116359 0.0181075
vt 0.130158 0.893848
vt 0.132663 0.961892
vt 0.160441 0.134192
vt 0.166373 0.500528
vt 0.167943 0.81306
vt 0.169358 0.865808
vt 0.299853 0.865808
vt 0.301002 0.961892
vt 0.301795 0.81306
vt 0.302827 0.893848
vt 0.304852 0.490681
vt 0.312492 0.134192
vt 0.312504 0.0181075
vt 0.313243 0.500528
vt 0.368949 0.0377143
vt 0.368949 0.0502392
vt 0.368949 0.0550987
vt 0.368949 0.0877258
vt 0.681481 0.00298937
vt 0.681481 0.0163012
vt 0.681481 0.112815
vt 0.681481 0.128412
vt 0.734229 0.00239234
vt 0.734229 0.0179026
vt 0.734229 0.110939
vt 0.734229 0.129112
vn 0.409459 -0.638792 0.651374
vn -0.768066 -0.491293 0.410738
vn -0.354964 -0.934678 -0.0194315
vn 0.96369 -0.266915 -0.00761422
vn 0.409459 -0.638792 0.651374
vn -0.354964 -0.934678 -0.0194315
vn -0.38701 0.655206 0.64879
vn -0.768066 -0.491293 0.410738
vn 0.409459 -0.638792 0.651374
vn 0.714886 0.581293 0.388634
vn -0.38701 0.655206 0.64879
vn 0.409459 -0.638792 0.651374
vn 0.313057 0.94954 -0.0192052
vn 0.714886 0.581293 0.388634
vn 0.96369 -0.266915 -0.00761422
vn 0.96369 -0.266915 -0.00761422
vn 0.714886 0.581293 0.388634
vn 0.409459 -0.638792 0.651374
vn -0.703817 -0.406507 -0.582575
vn -0.406269 0.703954 -0.582576
vn 0.406268 -0.703955 -0.582575
vn -0.406269 0.703954 -0.582576
vn 0.703816 0.406508 -0.582575
vn 0.406268 -0.703955 -0.582575
vn -0.768066 -0.491293 0.410738
vn -0.927689 0.373342 -0.00284366
vn -0.354964 -0.934678 -0.0194315
vn -0.38701 0.655206 0.64879
vn -0.927689 0.373342 -0.00284366
vn -0.768066 -0.491293 0.410738
vn -0.38701 0.655206 0.64879
vn 0.313057 0.94954 -0.0192052
vn -0.927689 0.373342 -0.00284366
vn 0.714886 0.581293 0.388634
vn 0.313057 0.94954 -0.0192052
vn -0.38701 0.655206 0.64879
vn -0.927689 0.373342 -0.00284366
vn -0.889575 -0.455008 -0.0402964
vn -0.354964 -0.934678 -0.0194315
vn -0.420087 0.907458 -0.00691932
vn -0.889575 -0.455008 -0.0402964
vn -0.927689 0.373342 -0.00284366
vn 0.441307 -0.897157 -0.0189145
vn 0.96369 -0.266915 -0.00761422
vn -0.354964 -0.934678 -0.0194315
vn -0.889575 -0.455008 -0.0402964
vn 0.441307 -0.897157 -0.0189145
vn -0.354964 -0.934678 -0.0194315
vn 0.313057 0.94954 -0.0192052
vn 0.96369 -0.266915 -0.00761422
vn 0.864443 0.501534 -0.0346722
vn 0.864443 0.501534 -0.0346722
vn 0.96369 -0.266915 -0.00761422
vn 0.441307 -0.897157 -0.0189145
vn -0.420087 0.907458 -0.00691932
vn 0.313057 0.94954 -0.0192052
vn 0.864443 0.501534 -0.0346722
vn 0.313057 0.94954 -0.0192052
vn -0.420087 0.907458 -0.00691932
vn -0.927689 0.373342 -0.00284366
vn -0.889575 -0.455008 -0.0402964
vn -0.406269 0.703954 -0.582576
vn -0.703817 -0.406507 -0.582575
vn -0.420087 0.907458 -0.00691932
vn -0.406269 0.703954 -0.582576
vn -0.889575 -0.455008 -0.0402964
vn -0.889575 -0.455008 -0.0402964
vn -0.703817 -0.406507 -0.582575
vn 0.406268 -0.703955 -0.582575
vn 0.441307 -0.897157 -0.0189145
vn -0.889575 -0.455008 -0.0402964
vn 0.406268 -0.703955 -0.582575
vn 0.864443 0.501534 -0.0346722
vn 0.441307 -0.897157 -0.0189145
vn 0.406268 -0.703955 -0.582575
vn 0.703816 0.406508 -0.582575
vn 0.864443 0.501534 -0.0346722
vn 0.406268 -0.703955 -0.582575
vn -0.406269 0.703954 -0.582576
vn -0.420087 0.907458 -0.00691932
vn 0.864443 0.501534 -0.0346722
vn 0.703816 0.406508 -0.582575
vn -0.406269 0.703954 -0.582576
vn 0.864443 0.501534 -0.0346722
g Default
usemtl Default
s 1
f 2/18/1 1/9/2 4/10/3
f 3/20/4 2/18/5 4/10/6
f 5/4/7 1/3/8 2/1/9
f 6/2/10 5/4/11 2/1/12
f 7/22/13 6/2/14 3/21/15
f 3/21/16 6/2/17 2/1/18
f 13/31/19 16/32/20 14/29/21
f 16/32/22 15/30/23 14/29/24
f 1/3/25 8/24/26 4/23/27
f 5/4/28 8/24/29 1/3/30
f 5/6/31 7/17/32 8/5/33
f 6/19/34 7/17/35 5/6/36
f 8/24/37 9/27/38 4/23/39
f 12/28/40 9/27/41 8/24/42
f 10/15/43 3/20/44 4/10/45
f 9/11/46 10/15/47 4/10/48
f 7/22/49 3/21/50 11/26/51
f 11/26/52 3/21/53 10/25/54
f 12/7/55 7/17/56 11/16/57
f 7/17/58 12/7/59 8/5/60
f 9/27/61 16/32/62 13/31/63
f 12/28/64 16/32/65 9/27/66
f 9/11/67 13/12/68 14/13/69
f 10/15/70 9/11/71 14/13/72
f 11/26/73 10/25/74 14/29/75
f 15/30/76 11/26/77 14/29/78
f 16/8/79 12/7/80 11/16/81
f 15/14/82 16/8/83 11/16/84
