####
#
#	OBJ File Generated by LightWave3D
#	LightWave3D OBJ Export v2.3
#
####
o library_station.obj
mtllib library_station.mtl
g default
v -3.50794 -3.08194 -0
v -3.50794 -2.87381 -0
v -3.50794 0.00777823 -0
v -3.50794 0.283585 -0
v -3.50794 2.55603 -0
v -3.27344 2.55603 -0
v 3.44804 2.55603 -0
v 3.68254 2.55603 -0
v 3.68254 0.283585 -0
v 3.68254 0.00777823 -0
v 3.68254 -2.87381 -0
v 3.68254 -3.08194 -0
v 3.44804 -3.08194 -0
v -3.27344 -3.08194 -0
v -3.27344 -2.87381 -0
v 3.44804 -2.87381 -0
v -3.50794 -3.08194 -0.269131
v -3.50794 2.55603 -0.269131
v -3.27344 2.55603 -0.269131
v 3.44804 2.55603 -0.269131
v 3.68254 2.55603 -0.269131
v 3.68254 -3.08194 -0.269131
v -3.50794 -3.08194 -3.66574
v -3.50794 2.55603 -3.66574
v -3.27344 2.55603 -3.66574
v 3.44804 2.55603 -3.66574
v 3.68254 2.55603 -3.66574
v 3.68254 -3.08194 -3.66574
v -3.50794 -3.08194 -3.92559
v -3.50794 -2.87381 -3.92559
v -3.50794 0.00777823 -3.92559
v -3.50794 0.283585 -3.92559
v -3.50794 2.55603 -3.92559
v -3.27344 2.55603 -3.92559
v 3.44804 2.55603 -3.92559
v 3.68254 2.55603 -3.92559
v 3.68254 0.283585 -3.92559
v 3.68254 0.00777823 -3.92559
v 3.68254 -2.87381 -3.92559
v 3.68254 -3.08194 -3.92559
v 3.44804 -3.08194 -3.92559
v -3.27344 -3.08194 -3.92559
v -3.27344 -2.87381 -0
v 3.44804 -2.87381 -0
v 3.44804 0.00777823 -0
v -3.27344 0.00777823 -0
v -3.27344 -2.87381 -3.67178
v 3.44804 -2.87381 -3.67178
v 3.44804 0.00777823 -3.67178
v -3.27344 0.283585 -0
v 3.44804 0.283585 -0
v 3.44804 2.55603 -0
v -3.27344 2.55603 -0
v -3.27344 0.283585 -3.67178
v 3.44804 0.283585 -3.67178
v 3.44804 2.55603 -3.67178
v -3.27344 2.55603 -3.67178
v -3.27344 0.00777823 -0
v 3.44804 0.00777823 -0
v -3.27344 0.283585 -0
v 3.44804 0.283585 -0
v 3.44804 -3.08194 -0.269131
v -3.27344 -3.08194 -0.269131
v 3.44804 -3.08194 -3.66574
v -3.27344 -3.08194 -3.66574
v -3.27344 0.283585 -1.95826
v 3.44804 0.283585 -1.95826
v 3.44804 0.00777823 -1.95826
v 3.44804 -3.08194 -0
v 3.44804 -3.08194 -0.269131
v 3.68254 -3.08194 -0.269131
v 3.68254 -3.08194 -0
v -3.50794 -3.08194 -0
v -3.50794 -3.08194 -0.269131
v -3.27344 -3.08194 -0.269131
v -3.27344 -3.08194 -0
v 3.44804 -3.08194 -3.66574
v 3.44804 -3.08194 -3.92559
v 3.68254 -3.08194 -3.92559
v 3.68254 -3.08194 -3.66574
v -3.50794 -3.08194 -3.66574
v -3.50794 -3.08194 -3.92559
v -3.27344 -3.08194 -3.92559
v -3.27344 -3.08194 -3.66574
v 3.44804 -7.29763 -0
v 3.44804 -7.29763 -0.269131
v 3.68254 -7.29763 -0.269131
v 3.68254 -7.29763 -0
v -3.50794 -7.29763 -0
v -3.50794 -7.29763 -0.269131
v -3.27344 -7.29763 -0.269131
v -3.27344 -7.29763 -0
v 3.44804 -7.29763 -3.66574
v 3.44804 -7.29763 -3.92559
v 3.68254 -7.29763 -3.92559
v 3.68254 -7.29763 -3.66574
v -3.50794 -7.29763 -3.66574
v -3.50794 -7.29763 -3.92559
v -3.27344 -7.29763 -3.92559
v -3.27344 -7.29763 -3.66574
v 3.44804 -3.08194 -0.269131
v 3.44804 -3.08194 -3.66574
v 3.68254 -3.08194 -3.66574
v 3.68254 -3.08194 -0.269131
v -3.50794 -3.08194 -0.269131
v -3.50794 -3.08194 -3.66574
v -3.27344 -3.08194 -3.66574
v -3.27344 -3.08194 -0.269131
v 3.44804 -4.25145 -0.269131
v 3.44804 -4.25145 -3.66574
v 3.68254 -4.25145 -3.66574
v 3.68254 -4.25145 -0.269131
v -3.50794 -4.25145 -0.269131
v -3.50794 -4.25145 -3.66574
v -3.27344 -4.25145 -3.66574
v -3.27344 -4.25145 -0.269131
v -3.27344 0.00777823 -3.67178
v -3.27344 0.00777823 -1.95826
vt 0.004131 0.0218708
vt 0.004131 0.268934
vt 0.00645022 0.00895614
vt 0.00645022 0.033108
vt 0.00645022 0.367504
vt 0.00645022 0.39951
vt 0.00645022 0.663218
vt 0.00822597 0.259033
vt 0.00822597 0.434231
vt 0.0276156 0.0651218
vt 0.0276156 0.201107
vt 0.0296679 0.6818
vt 0.0296679 0.69193
vt 0.0296679 0.692943
vt 0.0296679 0.703072
vt 0.0296679 0.704085
vt 0.0296679 0.714216
vt 0.0296679 0.715229
vt 0.0296679 0.725358
vt 0.0296679 0.726371
vt 0.0296679 0.736501
vt 0.0296679 0.737513
vt 0.0296679 0.747644
vt 0.0296679 0.748657
vt 0.0296679 0.758787
vt 0.0296679 0.759799
vt 0.0296679 0.769929
vt 0.0296679 0.770942
vt 0.0296679 0.781071
vt 0.0296679 0.782085
vt 0.0296679 0.792215
vt 0.0296679 0.793228
vt 0.0296679 0.803357
vt 0.0296679 0.80437
vt 0.0296679 0.8145
vt 0.0296679 0.815513
vt 0.0296679 0.825643
vt 0.0296679 0.826656
vt 0.0296679 0.836786
vt 0.0296679 0.837799
vt 0.0296679 0.847928
vt 0.0296679 0.848941
vt 0.0296679 0.859071
vt 0.0298357 0.920224
vt 0.0298357 0.931607
vt 0.0298357 0.937231
vt 0.0298357 0.948222
vt 0.0309279 0.437976
vt 0.0309279 0.629608
vt 0.0319386 0.862382
vt 0.0319386 0.873372
vt 0.0377682 0.880827
vt 0.0377682 0.896497
vt 0.0385351 0.00895614
vt 0.0385351 0.663218
vt 0.0390317 0.904151
vt 0.0390317 0.913927
vt 0.0431107 0.971345
vt 0.0431107 0.979941
vt 0.0456769 0.955165
vt 0.0456769 0.96494
vt 0.0547108 0.270729
vt 0.0547108 0.5766
vt 0.0929566 0.497727
vt 0.0929566 0.547943
vt 0.127309 0.365282
vt 0.127309 0.626978
vt 0.173148 0.955165
vt 0.173148 0.96494
vt 0.18862 0.955165
vt 0.18862 0.96494
vt 0.193193 0.723038
vt 0.193193 0.733905
vt 0.200673 0.904151
vt 0.200673 0.913927
vt 0.202526 0.723038
vt 0.202526 0.733905
vt 0.216144 0.904151
vt 0.216144 0.913927
vt 0.243859 0.922979
vt 0.243859 0.931186
vt 0.253192 0.922979
vt 0.253192 0.931186
vt 0.256554 0.786578
vt 0.256554 0.796249
vt 0.256554 0.797216
vt 0.256554 0.806887
vt 0.256554 0.807854
vt 0.256554 0.817526
vt 0.256554 0.818493
vt 0.256554 0.828164
vt 0.266225 0.786578
vt 0.266225 0.796249
vt 0.266225 0.797216
vt 0.266225 0.806887
vt 0.266225 0.807854
vt 0.266225 0.817526
vt 0.266225 0.818493
vt 0.266225 0.828164
vt 0.270269 0.6818
vt 0.270269 0.69193
vt 0.270269 0.692943
vt 0.270269 0.703072
vt 0.270269 0.704085
vt 0.270269 0.714216
vt 0.270269 0.715229
vt 0.270269 0.725358
vt 0.270269 0.726371
vt 0.270269 0.736501
vt 0.270269 0.737513
vt 0.270269 0.747644
vt 0.270269 0.748657
vt 0.270269 0.758787
vt 0.270269 0.759799
vt 0.270269 0.769929
vt 0.270269 0.770942
vt 0.270269 0.781071
vt 0.270269 0.782085
vt 0.270269 0.792215
vt 0.270269 0.793228
vt 0.270269 0.803357
vt 0.270269 0.80437
vt 0.270269 0.8145
vt 0.270269 0.815513
vt 0.270269 0.825643
vt 0.270269 0.826656
vt 0.270269 0.836786
vt 0.270269 0.837799
vt 0.270269 0.847928
vt 0.270269 0.848941
vt 0.270269 0.859071
vt 0.271874 0.682507
vt 0.271874 0.692637
vt 0.273295 0.695905
vt 0.273295 0.707288
vt 0.274121 0.713817
vt 0.274121 0.857567
vt 0.28563 0.682507
vt 0.28563 0.692637
vt 0.28657 0.695905
vt 0.28657 0.707288
vt 0.287006 0.682507
vt 0.287006 0.692637
vt 0.287876 0.713817
vt 0.287876 0.857567
vt 0.289253 0.713817
vt 0.289253 0.857567
vt 0.300763 0.682507
vt 0.300763 0.692637
vt 0.302138 0.682507
vt 0.302138 0.692637
vt 0.303009 0.713817
vt 0.303009 0.857567
vt 0.304384 0.713817
vt 0.304384 0.857567
vt 0.314308 0.699174
vt 0.314308 0.710165
vt 0.315894 0.682507
vt 0.315894 0.692637
vt 0.317269 0.682507
vt 0.317269 0.692637
vt 0.31814 0.713817
vt 0.31814 0.857567
vt 0.319516 0.713817
vt 0.319516 0.857567
vt 0.327583 0.699174
vt 0.327583 0.710165
vt 0.331025 0.682507
vt 0.331025 0.692637
vt 0.333271 0.713817
vt 0.333271 0.857567
vt 0.343616 0.904151
vt 0.343616 0.913927
vt 0.345287 0.717272
vt 0.345287 0.860933
vt 0.350261 0.955165
vt 0.350261 0.96494
vt 0.351762 0.902327
vt 0.351762 0.910923
vt 0.355303 0.953078
vt 0.355303 0.964069
vt 0.358562 0.717272
vt 0.358562 0.860933
vt 0.364157 0.708269
vt 0.364157 0.85193
vt 0.365036 0.902327
vt 0.365036 0.910923
vt 0.368578 0.953078
vt 0.368578 0.964069
vt 0.377432 0.708269
vt 0.377432 0.85193
vt 0.384613 0.712354
vt 0.384613 0.761407
vt 0.385238 0.808418
vt 0.385238 0.857469
vt 0.394765 0.375895
vt 0.394765 0.631262
vt 0.395522 0.496845
vt 0.395522 0.547061
vt 0.398369 0.712354
vt 0.398369 0.761407
vt 0.398994 0.808418
vt 0.398994 0.857469
vt 0.400045 0.259033
vt 0.400045 0.434231
vt 0.400369 0.808418
vt 0.400369 0.857469
vt 0.401373 0.437976
vt 0.401373 0.629608
vt 0.401746 0.497727
vt 0.401746 0.547943
vt 0.405122 0.383411
vt 0.405122 0.46251
vt 0.405916 0.385854
vt 0.405916 0.621571
vt 0.406037 0.301636
vt 0.406037 0.380735
vt 0.406619 0.920224
vt 0.406619 0.931607
vt 0.406619 0.937231
vt 0.406619 0.948222
vt 0.407973 0.387593
vt 0.407973 0.612535
vt 0.412435 0.862382
vt 0.412435 0.873372
vt 0.414126 0.808418
vt 0.414126 0.857469
vt 0.414552 0.880827
vt 0.414552 0.896497
vt 0.415502 0.808418
vt 0.415502 0.857469
vt 0.423607 0.971345
vt 0.423607 0.979941
vt 0.429258 0.808418
vt 0.429258 0.857469
vt 0.455621 0.668428
vt 0.455621 0.690138
vt 0.455621 0.964149
vt 0.455621 0.985112
vt 0.460792 0.676885
vt 0.460792 0.698596
vt 0.460792 0.972606
vt 0.460792 0.993568
vt 0.49022 0.800081
vt 0.49022 0.904845
vt 0.493209 0.0651218
vt 0.493209 0.201107
vt 0.497119 0.684719
vt 0.497119 0.789482
vt 0.501207 0.0651218
vt 0.501207 0.201107
vt 0.664796 0.668428
vt 0.664796 0.985112
vt 0.669967 0.676885
vt 0.669967 0.993568
vt 0.690183 0.668428
vt 0.690183 0.985112
vt 0.695354 0.676885
vt 0.695354 0.993568
vt 0.704307 0.496845
vt 0.704307 0.547061
vt 0.743095 0.387593
vt 0.743095 0.612535
vt 0.757094 0.385854
vt 0.757094 0.621571
vt 0.764589 0.383411
vt 0.764589 0.46251
vt 0.765504 0.301636
vt 0.765504 0.380735
vt 0.786298 0.270729
vt 0.786298 0.5766
vt 0.839896 0.116494
vt 0.839896 0.11752
vt 0.859662 0.0218708
vt 0.859662 0.268934
vt 0.888421 0.375895
vt 0.888421 0.631262
vt 0.944565 0.800081
vt 0.944565 0.904845
vt 0.951464 0.684719
vt 0.951464 0.789482
vt 0.955428 0.668428
vt 0.955428 0.985112
vt 0.958181 0.00895614
vt 0.958181 0.663218
vt 0.960599 0.676885
vt 0.960599 0.993568
vt 0.966799 0.365282
vt 0.966799 0.626978
vt 0.966804 0.0651218
vt 0.966804 0.201107
vt 0.974583 0.668428
vt 0.974583 0.690138
vt 0.974583 0.964149
vt 0.974583 0.985112
vt 0.979755 0.676885
vt 0.979755 0.698596
vt 0.979755 0.972606
vt 0.979755 0.993568
vt 0.990266 0.00895614
vt 0.990266 0.033108
vt 0.990266 0.367504
vt 0.990266 0.39951
vt 0.990266 0.663218
vn 0 -0.447214 0.894427
vn 0 0 1
vn -0.447214 0 0.894427
vn -0.707107 0 0.707107
vn 0 -0.447214 0.894427
vn 0 0 1
vn 0 0 1
vn 0 -0.447214 0.894427
vn 0.707107 0 0.707107
vn 0.447214 0 0.894427
vn 0 0 1
vn 0 -0.447214 0.894427
vn -0.447214 0.894427 -0
vn -0.447214 0.894427 -0
vn -0.57735 0.57735 -0.57735
vn -0.707107 0 -0.707107
vn -0.707107 0 -0.707107
vn -0.707107 0 -0.707107
vn -0.707107 0 -0.707107
vn -1 0 -0
vn -1 0 -0
vn -0.707107 0 0.707107
vn -0.447214 0 0.894427
vn -0.707107 0 0.707107
vn -0.707107 0 0.707107
vn -0.57735 0.57735 0.57735
vn 0 0.707107 0.707107
vn 0 1 -0
vn -0.447214 0.894427 -0
vn -0.57735 0.57735 0.57735
vn 0.57735 0.57735 0.57735
vn 0.447214 0.894427 -0
vn 0 1 -0
vn 0 0.707107 0.707107
vn 0 1 -0
vn 0 1 -0
vn -0.447214 0.894427 -0
vn -0.447214 0.894427 -0
vn 0.447214 0.894427 -0
vn 0.447214 0.894427 -0
vn 0 1 -0
vn 0 1 -0
vn 0 -1 -0
vn 0 -1 -0
vn 0 -1 -0
vn 0 -1 -0
vn 0 1 -0
vn 0 0.894427 -0.447214
vn -0.57735 0.57735 -0.57735
vn -0.447214 0.894427 -0
vn 0 1 -0
vn 0 0.894427 -0.447214
vn 0 0.894427 -0.447214
vn 0 1 -0
vn 0.447214 0.894427 -0
vn 0.57735 0.57735 -0.57735
vn 0 0.894427 -0.447214
vn 0 1 -0
vn 0.707107 0 -0.707107
vn 0.707107 0 -0.707107
vn 0.707107 0 -0.707107
vn 0.707107 0 -0.707107
vn 0 -0.707107 -0.707107
vn 0 -0.707107 -0.707107
vn -0.707107 0 -0.707107
vn -0.707107 0 -0.707107
vn -0.707107 0 -0.707107
vn -0.707107 0 -0.707107
vn -0.57735 0.57735 -0.57735
vn 0 0.894427 -0.447214
vn 0 0.894427 -0.447214
vn 0.57735 0.57735 -0.57735
vn 0.57735 0.57735 0.57735
vn 0.57735 -0.57735 0.57735
vn 1 0 -0
vn 0.707107 0.707107 -0
vn -0.707107 0.707107 -0
vn -0.57735 0.57735 0.57735
vn 0.57735 0.57735 0.57735
vn 0.707107 0.707107 -0
vn -1 0 -0
vn -0.57735 -0.57735 0.57735
vn -0.57735 0.57735 0.57735
vn -0.707107 0.707107 -0
vn -0.57735 0.57735 0.57735
vn -0.57735 -0.57735 0.57735
vn 0.57735 -0.57735 0.57735
vn 0.57735 0.57735 0.57735
vn 0.57735 0.57735 0.57735
vn 0.707107 0 0.707107
vn 1 0 -0
vn 1 0 -0
vn 0.707107 0 0.707107
vn 0.707107 0 0.707107
vn 0.447214 0 0.894427
vn 0.707107 0 0.707107
vn 1 0 -0
vn 1 0 -0
vn 0.707107 0 -0.707107
vn 0.707107 0 -0.707107
vn 0.707107 0 -0.707107
vn 0.707107 0 -0.707107
vn 0.57735 0.57735 -0.57735
vn 0.447214 0.894427 -0
vn 0.447214 0.894427 -0
vn 0.57735 0.57735 0.57735
vn -1 0 -0
vn -0.707107 0 0.707107
vn -0.57735 0.57735 0.57735
vn -1 0 -0
vn -0.57735 0.57735 0.57735
vn -0.707107 0 0.707107
vn 0.707107 0 0.707107
vn 0.57735 0.57735 0.57735
vn -0.57735 -0.57735 0.57735
vn -0.57735 0.57735 0.57735
vn 0.57735 0.57735 0.57735
vn 0.57735 -0.57735 0.57735
vn 0.707107 0 0.707107
vn 0.707107 0 0.707107
vn 0 0.707107 0.707107
vn -0.57735 0.57735 0.57735
vn -0.707107 0 0.707107
vn -0.707107 0 0.707107
vn -0.447214 0 0.894427
vn 0 0 1
vn 0.707107 0 0.707107
vn 0.707107 0 0.707107
vn 0.57735 0.57735 0.57735
vn 0 0.707107 0.707107
vn -0.707107 0 0.707107
vn -0.707107 0 0.707107
vn 0 0 1
vn 0.447214 0 0.894427
vn 0 -0.707107 -0.707107
vn 0 -0.707107 -0.707107
vn 0 -1 -0
vn 0 -1 -0
vn 0 -1 -0
vn 0 -1 -0
vn 0 -0.447214 0.894427
vn 0 -0.447214 0.894427
vn 0.57735 0.57735 0.57735
vn 0.707107 0 0.707107
vn 0.707107 0 0.707107
vn 0.57735 -0.57735 0.57735
vn -0.707107 0 0.707107
vn -0.707107 0 0.707107
vn -0.57735 0.57735 0.57735
vn -0.57735 -0.57735 0.57735
vn -0.57735 0.57735 0.57735
vn 0.57735 0.57735 0.57735
vn 0.57735 0.57735 0.57735
vn -0.57735 0.57735 0.57735
vn -0.57735 -0.57735 0.57735
vn -0.57735 -0.57735 0.57735
vn -0.57735 -0.57735 0.57735
vn 0.57735 -0.57735 0.57735
vn 0.57735 -0.57735 0.57735
vn -0.57735 -0.57735 0.57735
vn 0.57735 -0.57735 0.57735
vn 0.57735 0.57735 0.57735
vn -0.57735 0.57735 0.57735
vn -0.57735 -0.57735 0.57735
vn -0.57735 0.57735 0.57735
vn -0.57735 0.57735 -0.57735
vn -0.57735 -0.57735 -0.57735
vn -0.57735 -0.57735 0.57735
vn -0.57735 0.57735 -0.57735
vn 0.57735 0.57735 -0.57735
vn 0.57735 -0.57735 -0.57735
vn -0.57735 -0.57735 -0.57735
vn 0.57735 -0.57735 -0.57735
vn 0.57735 0.57735 -0.57735
vn 0.57735 0.57735 0.57735
vn 0.57735 -0.57735 0.57735
vn 0.57735 0.57735 0.57735
vn -0.57735 0.57735 0.57735
vn -0.57735 -0.57735 0.57735
vn 0.57735 -0.57735 0.57735
vn -0.57735 0.57735 0.57735
vn -0.57735 0.57735 -0.57735
vn -0.57735 -0.57735 -0.57735
vn -0.57735 -0.57735 0.57735
vn -0.57735 -0.57735 -0.57735
vn -0.57735 0.57735 -0.57735
vn 0.57735 0.57735 -0.57735
vn 0.57735 -0.57735 -0.57735
vn 0.57735 -0.57735 -0.57735
vn 0.57735 0.57735 -0.57735
vn 0.57735 0.57735 0.57735
vn 0.57735 -0.57735 0.57735
vn 0.57735 -0.57735 0.57735
vn 0.57735 0.57735 0.57735
vn -0.57735 0.57735 0.57735
vn -0.57735 -0.57735 0.57735
vn -0.57735 0.57735 0.57735
vn -0.57735 0.57735 -0.57735
vn -0.57735 -0.57735 -0.57735
vn -0.57735 -0.57735 0.57735
vn -0.57735 0.57735 -0.57735
vn 0.57735 0.57735 -0.57735
vn 0.57735 -0.57735 -0.57735
vn -0.57735 -0.57735 -0.57735
vn 0.57735 -0.57735 -0.57735
vn 0.57735 0.57735 -0.57735
vn 0.57735 0.57735 0.57735
vn 0.57735 -0.57735 0.57735
vn 0.57735 0.57735 0.57735
vn -0.57735 0.57735 0.57735
vn -0.57735 -0.57735 0.57735
vn 0.57735 -0.57735 0.57735
vn -0.57735 0.57735 0.57735
vn -0.57735 0.57735 -0.57735
vn -0.57735 -0.57735 -0.57735
vn -0.57735 -0.57735 0.57735
vn -0.57735 -0.57735 -0.57735
vn -0.57735 0.57735 -0.57735
vn 0.57735 0.57735 -0.57735
vn 0.57735 -0.57735 -0.57735
vn 0.57735 -0.57735 -0.57735
vn 0.57735 0.57735 -0.57735
vn 0.57735 0.57735 0.57735
vn 0.57735 -0.57735 0.57735
vn 0.57735 0.57735 0.57735
vn 0.57735 0.57735 -0.57735
vn -0.57735 0.57735 -0.57735
vn -0.57735 0.57735 0.57735
vn -0.57735 -0.57735 -0.57735
vn 0.57735 -0.57735 -0.57735
vn 0.57735 -0.57735 0.57735
vn -0.57735 -0.57735 0.57735
vn 0.57735 0.57735 0.57735
vn 0.57735 0.57735 -0.57735
vn -0.57735 0.57735 -0.57735
vn -0.57735 0.57735 0.57735
vn -0.57735 -0.57735 -0.57735
vn 0.57735 -0.57735 -0.57735
vn 0.57735 -0.57735 0.57735
vn -0.57735 -0.57735 0.57735
vn 0.57735 0.57735 0.57735
vn 0.57735 0.57735 -0.57735
vn -0.57735 0.57735 -0.57735
vn -0.57735 0.57735 0.57735
vn -0.57735 -0.57735 -0.57735
vn 0.57735 -0.57735 -0.57735
vn 0.57735 -0.57735 0.57735
vn -0.57735 -0.57735 0.57735
vn 0.57735 0.57735 0.57735
vn 0.57735 0.57735 -0.57735
vn -0.57735 0.57735 -0.57735
vn -0.57735 0.57735 0.57735
vn -0.57735 -0.57735 -0.57735
vn 0.57735 -0.57735 -0.57735
vn 0.57735 -0.57735 0.57735
vn -0.57735 -0.57735 0.57735
vn 0.57735 -0.57735 0.57735
vn 0.57735 0.57735 0.57735
vn -0.57735 0.57735 0.57735
vn -0.57735 -0.57735 0.57735
vn -0.57735 0.57735 0.57735
vn -0.57735 0.57735 -0.57735
vn -0.57735 -0.57735 -0.57735
vn -0.57735 -0.57735 0.57735
vn -0.57735 0.57735 -0.57735
vn 0.57735 0.57735 -0.57735
vn 0.57735 -0.57735 -0.57735
vn -0.57735 -0.57735 -0.57735
vn 0.57735 -0.57735 -0.57735
vn 0.57735 0.57735 -0.57735
vn 0.57735 0.57735 0.57735
vn 0.57735 -0.57735 0.57735
vn 0.57735 0.57735 0.57735
vn -0.57735 0.57735 0.57735
vn -0.57735 -0.57735 0.57735
vn 0.57735 -0.57735 0.57735
vn -0.57735 0.57735 0.57735
vn -0.57735 0.57735 -0.57735
vn -0.57735 -0.57735 -0.57735
vn -0.57735 -0.57735 0.57735
vn -0.57735 -0.57735 -0.57735
vn -0.57735 0.57735 -0.57735
vn 0.57735 0.57735 -0.57735
vn 0.57735 -0.57735 -0.57735
vn 0.57735 -0.57735 -0.57735
vn 0.57735 0.57735 -0.57735
vn 0.57735 0.57735 0.57735
vn 0.57735 -0.57735 0.57735
vn 0.57735 0.57735 0.57735
vn 0.57735 0.57735 -0.57735
vn -0.57735 0.57735 -0.57735
vn -0.57735 0.57735 0.57735
vn -0.57735 -0.57735 -0.57735
vn 0.57735 -0.57735 -0.57735
vn 0.57735 -0.57735 0.57735
vn -0.57735 -0.57735 0.57735
vn 0.57735 0.57735 0.57735
vn 0.57735 0.57735 -0.57735
vn -0.57735 0.57735 -0.57735
vn -0.57735 0.57735 0.57735
vn -0.57735 -0.57735 -0.57735
vn 0.57735 -0.57735 -0.57735
vn 0.57735 -0.57735 0.57735
vn -0.57735 -0.57735 0.57735
g Default
usemtl Default
s off
f 14/186/1 15/187/2 2/179/3 1/178/4
f 13/232/5 16/233/6 15/59/7 14/58/8
f 12/82/9 11/83/10 16/81/11 13/80/12
f 18/237/13 24/238/14 33/239/15 32/253/16 31/257/17 30/283/18 29/295/19 23/294/20 17/293/21 1/292/22 2/282/23 3/256/24 4/252/25 5/236/26
f 6/140/27 19/141/28 18/135/29 5/134/30
f 8/76/31 21/77/32 20/73/33 7/72/34
f 19/182/35 25/183/36 24/175/37 18/174/38
f 21/190/39 27/191/40 26/185/41 20/184/42
f 65/63/43 64/271/44 62/270/45 63/62/46
f 25/188/47 34/189/48 33/181/49 24/180/50
f 26/224/51 35/225/52 34/51/53 25/50/54
f 27/166/55 36/167/56 35/157/57 26/156/58
f 37/303/59 38/302/60 39/301/61 40/300/62 41/284/63 42/54/64 29/3/65 30/4/66 31/5/67 32/6/68 33/7/69 34/55/70 35/285/71 36/304/72
f 47/264/73 117/265/74 46/215/75 43/214/76
f 44/204/77 48/205/78 47/9/79 43/8/80
f 45/223/81 49/263/82 48/262/83 44/222/84
f 48/288/85 49/289/86 117/67/87 47/66/88
f 54/276/89 57/277/90 53/197/91 50/196/92
f 9/254/93 10/258/94 11/286/95 12/296/96 22/297/97 28/298/98 40/299/99 39/287/100 38/259/101 37/255/102 36/243/103 27/242/104 21/241/105 8/240/106
f 52/49/107 56/209/108 55/208/109 51/48/110
f 55/274/111 56/275/112 57/2/113 54/1/114
f 68/228/115 67/229/116 66/53/117 118/52/118
f 58/74/119 60/78/120 6/172/121 5/173/122 4/79/123 3/75/124 2/57/125 15/56/126
f 10/71/127 9/69/128 8/61/129 7/60/130 61/68/131 59/70/132 16/176/133 11/177/134
f 42/47/135 41/221/136 64/220/137 65/46/138
f 63/45/139 62/219/140 13/218/141 14/44/142
f 66/211/143 60/65/144 58/64/145 118/210/146
f 59/198/147 61/199/148 67/261/149 68/260/150
f 55/267/151 54/213/152 66/212/153 67/266/154
l 68/273/155 49/272/156
f 68/268/157 118/216/158 117/217/159 49/269/160
f 88/40/161 72/128/162 69/129/163 85/41/164
f 69/123/165 70/122/166 86/34/167 85/35/168
f 70/131/169 71/130/170 87/42/171 86/43/172
f 87/14/173 71/102/174 72/103/175 88/15/176
f 76/124/177 73/125/178 89/37/179 92/36/180
f 73/111/181 74/110/182 90/22/183 89/23/184
f 90/21/185 74/109/186 75/108/187 91/20/188
f 91/18/189 75/106/190 76/107/191 92/19/192
f 96/12/193 80/100/194 77/101/195 93/13/196
f 77/115/197 78/114/198 94/26/199 93/27/200
f 78/113/201 79/112/202 95/24/203 94/25/204
f 95/16/205 79/104/206 80/105/207 96/17/208
f 84/126/209 81/127/210 97/39/211 100/38/212
f 81/117/213 82/116/214 98/28/215 97/29/216
f 98/33/217 82/121/218 83/120/219 99/32/220
f 99/30/221 83/118/222 84/119/223 100/31/224
f 72/98/225 71/99/226 70/91/227 69/90/228
f 86/89/229 87/97/230 88/96/231 85/88/232
f 76/92/233 75/93/234 74/85/235 73/84/236
f 90/87/237 91/95/238 92/94/239 89/86/240
f 80/148/241 79/149/242 78/143/243 77/142/244
f 94/151/245 95/159/246 96/158/247 93/150/248
f 84/168/249 83/169/250 82/161/251 81/160/252
f 98/133/253 99/139/254 100/138/255 97/132/256
f 112/226/257 104/227/258 101/207/259 109/206/260
f 101/251/261 102/291/262 110/290/263 109/250/264
f 102/195/265 103/203/266 111/202/267 110/194/268
f 111/278/269 103/279/270 104/245/271 112/244/272
f 108/201/273 105/193/274 113/192/275 116/200/276
f 105/249/277 106/281/278 114/280/279 113/248/280
f 114/230/281 106/231/282 107/235/283 115/234/284
f 115/246/285 107/247/286 108/11/287 116/10/288
f 104/152/289 103/153/290 102/147/291 101/146/292
f 110/155/293 111/163/294 112/162/295 109/154/296
f 108/170/297 107/171/298 106/165/299 105/164/300
f 114/137/301 115/145/302 116/144/303 113/136/304
