####
#
#	OBJ File Generated by LightWave3D
#	LightWave3D OBJ Export v2.3
#
####
o CoffeeTable_Captain.obj
mtllib CoffeeTable_Captain.mtl
g default
v 5.40946 0.226337 2.74275
v 5.49383 0.226337 2.45908
v 5.56627 0.226337 2.00783
v 5.62186 0.226337 1.41975
v 5.65681 0.226337 0.734918
v 5.66872 0.226337 3.57628e-007
v 5.65681 0.226337 -0.734918
v 5.62186 0.226337 -1.41975
v 5.56627 0.226337 -2.00783
v 5.49383 0.226337 -2.45908
v 5.40946 0.226337 -2.74275
v -5.40946 0.226337 -2.74275
v -5.49383 0.226337 -2.45908
v -5.56627 0.226337 -2.00783
v -5.62186 0.226337 -1.41975
v -5.65681 0.226337 -0.734918
v -5.66872 0.226337 3.57628e-007
v -5.65681 0.226337 0.734918
v -5.62186 0.226337 1.41975
v -5.56627 0.226337 2.00783
v -5.49383 0.226337 2.45908
v -5.40946 0.226337 2.74275
v 5.40946 -0.226337 2.74275
v 5.49383 -0.226337 2.45908
v 5.56627 -0.226337 2.00783
v 5.62186 -0.226337 1.41975
v 5.65681 -0.226337 0.734918
v 5.66872 -0.226337 3.57628e-007
v 5.65681 -0.226337 -0.734918
v 5.62186 -0.226337 -1.41975
v 5.56627 -0.226337 -2.00783
v 5.49383 -0.226337 -2.45908
v 5.40946 -0.226337 -2.74275
v -5.40946 -0.226337 -2.74275
v -5.49383 -0.226337 -2.45908
v -5.56627 -0.226337 -2.00783
v -5.62186 -0.226337 -1.41975
v -5.65681 -0.226337 -0.734918
v -5.66872 -0.226337 3.57628e-007
v -5.65681 -0.226337 0.734918
v -5.62186 -0.226337 1.41975
v -5.56627 -0.226337 2.00783
v -5.49383 -0.226337 2.45908
v -5.40946 -0.226337 2.74275
v -5.03321 -0.742257 2.50247
v 5.00493 -0.742257 2.50247
v 5.00493 -0.742257 -2.51661
v -5.03321 -0.742257 -2.51661
v -5.03321 -0.219143 2.50247
v 5.00493 -0.219143 2.50247
v 5.00493 -0.219143 -2.51661
v -5.03321 -0.219143 -2.51661
v -4.48889 -4.24909 1.97935
v 4.48889 -4.24909 1.97935
v 4.48889 -4.24909 -1.97935
v -4.48889 -4.24909 -1.97935
v -4.48889 -0.742814 1.97935
v 4.48889 -0.742814 1.97935
v 4.48889 -0.742814 -1.97935
v -4.48889 -0.742814 -1.97935
v -4.00244 -3.98565 1.97935
v -4.00244 -1.00761 1.97935
v 4.00244 -1.00761 1.97935
v 4.00244 -3.98565 1.97935
v -4.00244 -3.98565 -1.97935
v -4.00244 -1.00761 -1.97935
v 4.00244 -1.00761 -1.97935
v 4.00244 -3.98565 -1.97935
v -4.00244 -3.98565 1.97935
v -4.00244 -1.00761 1.97935
v -4.00244 -3.98565 -1.97935
v -4.00244 -1.00761 -1.97935
v 4.00244 -1.00761 1.97935
v 4.00244 -1.00761 -1.97935
v 4.00244 -3.98565 1.97935
v 4.00244 -3.98565 -1.97935
vt 0.00443459 0.458874
vt 0.00443459 0.632035
vt 0.00444664 0.231061
vt 0.00444664 0.268939
vt 0.01311 0.00836823
vt 0.01311 0.48785
vt 0.0149239 0.53325
vt 0.0149239 0.995347
vt 0.0205785 0.00842664
vt 0.0205785 0.490817
vt 0.0280753 0.0343478
vt 0.0280753 0.46187
vt 0.0356345 0.0345644
vt 0.0356345 0.464679
vt 0.063401 0.242566
vt 0.0643382 0.181304
vt 0.0643382 0.303831
vt 0.0670858 0.124215
vt 0.0670858 0.360918
vt 0.0714567 0.0751921
vt 0.0714567 0.409941
vt 0.0771529 0.0375755
vt 0.0771529 0.447558
vt 0.0837861 0.0139286
vt 0.0837861 0.471206
vt 0.196376 0.0343478
vt 0.196376 0.46187
vt 0.204954 0.0345644
vt 0.204954 0.464679
vt 0.20983 0.53325
vt 0.20983 0.995347
vt 0.211264 0.00836823
vt 0.211264 0.48785
vt 0.219934 0.00842664
vt 0.219934 0.490817
vt 0.30709 0.0112507
vt 0.30709 0.117415
vt 0.30709 0.138649
vt 0.30709 0.244816
vt 0.322601 0.640625
vt 0.322601 0.768466
vt 0.359202 0.458874
vt 0.359202 0.632035
vt 0.404644 0.231061
vt 0.404644 0.268939
vt 0.413538 0.113636
vt 0.413538 0.231061
vt 0.413538 0.268939
vt 0.413958 0.0843587
vt 0.413958 0.142914
vt 0.415192 0.0570763
vt 0.415192 0.170196
vt 0.417154 0.0336483
vt 0.417154 0.193624
vt 0.419711 0.0156714
vt 0.419711 0.211601
vt 0.422689 0.00437063
vt 0.422689 0.222902
vt 0.456961 0.254741
vt 0.456961 0.360908
vt 0.456961 0.382141
vt 0.456961 0.488308
vt 0.622783 0.807268
vt 0.622783 0.983689
vt 0.624 0.604383
vt 0.624 0.780804
vt 0.631944 0.640625
vt 0.631944 0.768466
vt 0.640783 0.640625
vt 0.640783 0.768466
vt 0.686237 0.458807
vt 0.686237 0.586648
vt 0.698034 0.539344
vt 0.698034 0.970174
vt 0.719437 0.254741
vt 0.719437 0.360908
vt 0.719437 0.382141
vt 0.719437 0.488308
vt 0.731643 0.276515
vt 0.731643 0.314394
vt 0.731643 0.32197
vt 0.731643 0.359848
vt 0.742944 0.276515
vt 0.742944 0.314394
vt 0.742944 0.32197
vt 0.742944 0.359848
vt 0.760921 0.276515
vt 0.760921 0.314394
vt 0.760921 0.32197
vt 0.760921 0.359848
vt 0.784349 0.276515
vt 0.784349 0.314394
vt 0.784349 0.32197
vt 0.784349 0.359848
vt 0.799203 0.807268
vt 0.799203 0.983689
vt 0.800421 0.604383
vt 0.800421 0.780804
vt 0.804584 0.00437063
vt 0.804584 0.222902
vt 0.807562 0.0156714
vt 0.807562 0.211601
vt 0.810119 0.0336483
vt 0.810119 0.193624
vt 0.810965 0.807268
vt 0.810965 0.983689
vt 0.811631 0.276515
vt 0.811631 0.314394
vt 0.811631 0.32197
vt 0.811631 0.359848
vt 0.812081 0.0570763
vt 0.812081 0.170196
vt 0.813314 0.0843587
vt 0.813314 0.142914
vt 0.813735 0.113636
vt 0.813735 0.231061
vt 0.813735 0.268939
vt 0.815141 0.605165
vt 0.815141 0.781585
vt 0.840909 0.276515
vt 0.840909 0.314394
vt 0.840909 0.32197
vt 0.840909 0.359848
vt 0.844846 0.0112507
vt 0.844846 0.117415
vt 0.844846 0.138649
vt 0.844846 0.244816
vt 0.870187 0.276515
vt 0.870187 0.314394
vt 0.870187 0.32197
vt 0.870187 0.359848
vt 0.897469 0.276515
vt 0.897469 0.314394
vt 0.897469 0.32197
vt 0.897469 0.359848
vt 0.90832 0.539344
vt 0.90832 0.970174
vt 0.920897 0.276515
vt 0.920897 0.314394
vt 0.920897 0.32197
vt 0.920897 0.359848
vt 0.934457 0.0139286
vt 0.934457 0.471206
vt 0.938874 0.276515
vt 0.938874 0.314394
vt 0.938874 0.32197
vt 0.938874 0.359848
vt 0.94109 0.0375755
vt 0.94109 0.447558
vt 0.946786 0.0751921
vt 0.946786 0.409941
vt 0.950126 0.640625
vt 0.950126 0.768466
vt 0.950175 0.276515
vt 0.950175 0.314394
vt 0.950175 0.32197
vt 0.950175 0.359848
vt 0.951156 0.124215
vt 0.951156 0.360918
vt 0.953905 0.181304
vt 0.953905 0.303831
vt 0.954841 0.242566
vt 0.987386 0.807268
vt 0.987386 0.983689
vt 0.991561 0.605165
vt 0.991561 0.781585
vt 0.995581 0.458807
vt 0.995581 0.586648
vn -0.507282 -0.529244 0.680122
vn 0.507282 -0.529244 0.680122
vn 0.507282 0.529244 0.680122
vn -0.507282 0.529244 0.680122
vn 0.507282 -0.529244 0.680122
vn 0.871687 -0.447969 0.198712
vn 0.871687 0.447969 0.198712
vn 0.507282 0.529244 0.680122
vn 0.871687 -0.447969 0.198712
vn 0.887163 -0.447402 0.113018
vn 0.887163 0.447402 0.113018
vn 0.871687 0.447969 0.198712
vn 0.887163 -0.447402 0.113018
vn 0.892028 -0.447297 0.0648923
vn 0.892028 0.447297 0.0648923
vn 0.887163 0.447402 0.113018
vn 0.892028 -0.447297 0.0648923
vn 0.893895 -0.447268 0.0300436
vn 0.893895 0.447268 0.0300436
vn 0.892028 0.447297 0.0648923
vn 0.893895 -0.447268 0.0300436
vn 0.894404 -0.447261 6.6647e-009
vn 0.894404 0.447261 6.6647e-009
vn 0.893895 0.447268 0.0300436
vn 0.894404 -0.447261 6.6647e-009
vn 0.893895 -0.447268 -0.0300436
vn 0.893895 0.447268 -0.0300436
vn 0.894404 0.447261 6.6647e-009
vn 0.893895 -0.447268 -0.0300436
vn 0.892028 -0.447297 -0.0648923
vn 0.892028 0.447297 -0.0648923
vn 0.893895 0.447268 -0.0300436
vn 0.892028 -0.447297 -0.0648923
vn 0.887163 -0.447402 -0.113018
vn 0.887163 0.447402 -0.113018
vn 0.892028 0.447297 -0.0648923
vn 0.887163 -0.447402 -0.113018
vn 0.871687 -0.447969 -0.198712
vn 0.871687 0.447969 -0.198712
vn 0.887163 0.447402 -0.113018
vn 0.871687 -0.447969 -0.198712
vn 0.507282 -0.529244 -0.680122
vn 0.507282 0.529244 -0.680122
vn 0.871687 0.447969 -0.198712
vn 0.507282 0.529244 -0.680122
vn 0.507282 -0.529244 -0.680122
vn -0.507282 -0.529244 -0.680122
vn -0.507282 0.529244 -0.680122
vn -0.507282 0.529244 -0.680122
vn -0.507282 -0.529244 -0.680122
vn -0.871687 -0.447969 -0.198712
vn -0.871687 0.447969 -0.198712
vn -0.871687 0.447969 -0.198712
vn -0.871687 -0.447969 -0.198712
vn -0.887163 -0.447402 -0.113018
vn -0.887163 0.447402 -0.113018
vn -0.887163 0.447402 -0.113018
vn -0.887163 -0.447402 -0.113018
vn -0.892028 -0.447297 -0.0648923
vn -0.892028 0.447297 -0.0648923
vn -0.892028 0.447297 -0.0648923
vn -0.892028 -0.447297 -0.0648923
vn -0.893895 -0.447268 -0.0300436
vn -0.893895 0.447268 -0.0300436
vn -0.893895 0.447268 -0.0300436
vn -0.893895 -0.447268 -0.0300436
vn -0.894404 -0.447261 6.6647e-009
vn -0.894404 0.447261 6.6647e-009
vn -0.894404 0.447261 6.6647e-009
vn -0.894404 -0.447261 6.6647e-009
vn -0.893895 -0.447268 0.0300436
vn -0.893895 0.447268 0.0300436
vn -0.893895 0.447268 0.0300436
vn -0.893895 -0.447268 0.0300436
vn -0.892028 -0.447297 0.0648923
vn -0.892028 0.447297 0.0648923
vn -0.892028 0.447297 0.0648923
vn -0.892028 -0.447297 0.0648923
vn -0.887163 -0.447402 0.113018
vn -0.887163 0.447402 0.113018
vn -0.887163 0.447402 0.113018
vn -0.887163 -0.447402 0.113018
vn -0.871687 -0.447969 0.198712
vn -0.871687 0.447969 0.198712
vn -0.871687 0.447969 0.198712
vn -0.871687 -0.447969 0.198712
vn -0.507282 -0.529244 0.680122
vn -0.507282 0.529244 0.680122
vn 0.871687 0.447969 0.198712
vn 0.887163 0.447402 0.113018
vn 0.892028 0.447297 0.0648923
vn 0.893895 0.447268 0.0300436
vn 0.894404 0.447261 6.6647e-009
vn 0.893895 0.447268 -0.0300436
vn 0.892028 0.447297 -0.0648923
vn 0.887163 0.447402 -0.113018
vn 0.871687 0.447969 -0.198712
vn 0.507282 0.529244 -0.680122
vn -0.507282 0.529244 -0.680122
vn -0.871687 0.447969 -0.198712
vn -0.887163 0.447402 -0.113018
vn -0.892028 0.447297 -0.0648923
vn -0.893895 0.447268 -0.0300436
vn -0.894404 0.447261 6.6647e-009
vn -0.893895 0.447268 0.0300436
vn -0.892028 0.447297 0.0648923
vn -0.887163 0.447402 0.113018
vn -0.871687 0.447969 0.198712
vn -0.507282 0.529244 0.680122
vn 0.507282 0.529244 0.680122
vn -0.507282 -0.529244 0.680122
vn -0.871687 -0.447969 0.198712
vn -0.887163 -0.447402 0.113018
vn -0.892028 -0.447297 0.0648923
vn -0.893895 -0.447268 0.0300436
vn -0.894404 -0.447261 6.6647e-009
vn -0.893895 -0.447268 -0.0300436
vn -0.892028 -0.447297 -0.0648923
vn -0.887163 -0.447402 -0.113018
vn -0.871687 -0.447969 -0.198712
vn -0.507282 -0.529244 -0.680122
vn 0.507282 -0.529244 -0.680122
vn 0.871687 -0.447969 -0.198712
vn 0.887163 -0.447402 -0.113018
vn 0.892028 -0.447297 -0.0648923
vn 0.893895 -0.447268 -0.0300436
vn 0.894404 -0.447261 6.6647e-009
vn 0.893895 -0.447268 0.0300436
vn 0.892028 -0.447297 0.0648923
vn 0.887163 -0.447402 0.113018
vn 0.871687 -0.447969 0.198712
vn 0.507282 -0.529244 0.680122
vn -0.57735 -0.57735 -0.57735
vn 0.57735 -0.57735 -0.57735
vn 0.57735 -0.57735 0.57735
vn -0.57735 -0.57735 0.57735
vn 0.57735 -0.57735 0.57735
vn 0.57735 0.57735 0.57735
vn -0.57735 0.57735 0.57735
vn -0.57735 -0.57735 0.57735
vn 0.57735 -0.57735 -0.57735
vn 0.57735 0.57735 -0.57735
vn 0.57735 0.57735 0.57735
vn 0.57735 -0.57735 0.57735
vn -0.57735 0.57735 -0.57735
vn 0.57735 0.57735 -0.57735
vn 0.57735 -0.57735 -0.57735
vn -0.57735 -0.57735 -0.57735
vn -0.57735 0.57735 0.57735
vn -0.57735 0.57735 -0.57735
vn -0.57735 -0.57735 -0.57735
vn -0.57735 -0.57735 0.57735
vn 0.57735 0.57735 0.57735
vn 0.57735 0.57735 -0.57735
vn -0.57735 0.57735 -0.57735
vn -0.57735 0.57735 0.57735
vn -0.57735 -0.57735 -0.57735
vn 0.57735 -0.57735 -0.57735
vn 0.57735 -0.57735 0.57735
vn -0.57735 -0.57735 0.57735
vn 0.57735 -0.57735 -0.57735
vn 0.57735 0.57735 -0.57735
vn 0.57735 0.57735 0.57735
vn 0.57735 -0.57735 0.57735
vn -0.57735 0.57735 0.57735
vn -0.57735 0.57735 -0.57735
vn -0.57735 -0.57735 -0.57735
vn -0.57735 -0.57735 0.57735
vn 0.57735 0.57735 0.57735
vn 0.57735 0.57735 -0.57735
vn -0.57735 0.57735 -0.57735
vn -0.57735 0.57735 0.57735
vn -0.57735 0.57735 0.57735
vn -0.57735 -0.57735 0.57735
vn 0.57735 -0.57735 0.57735
vn 0 0 1
vn 0 0 1
vn 0 0 1
vn 0 0 1
vn 0 0 1
vn 0.57735 -0.57735 0.57735
vn 0.57735 0.57735 0.57735
vn 0.57735 -0.57735 -0.57735
vn 0 0 -1
vn 0 0 -1
vn 0 0 -1
vn 0 0 -1
vn 0 0 -1
vn 0.57735 -0.57735 -0.57735
vn -0.57735 -0.57735 -0.57735
vn -0.57735 0.57735 -0.57735
vn 0.57735 0.57735 -0.57735
vn 0.707107 0.707107 -0
vn 0.707107 -0.707107 -0
vn 0.707107 -0.707107 -0
vn 0.707107 0.707107 -0
vn 0.707107 -0.707107 -0
vn -0.707107 -0.707107 -0
vn -0.707107 -0.707107 -0
vn 0.707107 -0.707107 -0
vn -0.707107 -0.707107 -0
vn -0.707107 0.707107 -0
vn -0.707107 0.707107 -0
vn -0.707107 -0.707107 -0
vn -0.707107 0.707107 -0
vn 0.707107 0.707107 -0
vn 0.707107 0.707107 -0
vn -0.707107 0.707107 -0
g Default
usemtl Default
s off
f 44/47/1 23/116/2 1/117/3 22/48/4
f 23/79/5 24/83/6 2/84/7 1/80/8
f 24/83/9 25/87/10 3/88/11 2/84/12
f 25/87/13 26/91/14 4/92/15 3/88/16
f 26/91/17 27/107/18 5/108/19 4/92/20
f 27/107/21 28/120/22 6/121/23 5/108/24
f 28/120/25 29/128/26 7/129/27 6/121/28
f 29/128/29 30/132/30 8/133/31 7/129/32
f 30/132/33 31/138/34 9/139/35 8/133/36
f 31/138/37 32/144/38 10/145/39 9/139/40
f 32/144/41 33/154/42 11/155/43 10/145/44
f 11/45/45 33/44/46 34/3/47 12/4/48
f 12/157/49 34/156/50 35/146/51 13/147/52
f 13/147/53 35/146/54 36/140/55 14/141/56
f 14/141/57 36/140/58 37/134/59 15/135/60
f 15/135/61 37/134/62 38/130/63 16/131/64
f 16/131/65 38/130/66 39/122/67 17/123/68
f 17/123/69 39/122/70 40/109/71 18/110/72
f 18/110/73 40/109/74 41/93/75 19/94/76
f 19/94/77 41/93/78 42/89/79 20/90/80
f 20/90/81 42/89/82 43/85/83 21/86/84
f 21/86/85 43/85/86 44/81/87 22/82/88
f 2/148/89 3/150/90 4/158/91 5/160/92 6/162/93 7/161/94 8/159/95 9/151/96 10/149/97 11/143/98 12/25/99 13/23/100 14/21/101 15/19/102 16/17/103 17/15/104 18/16/105 19/18/106 20/20/107 21/22/108 22/24/109 1/142/110
f 44/57/111 43/55/112 42/53/113 41/51/114 40/49/115 39/46/116 38/50/117 37/52/118 36/54/119 35/56/120 34/58/121 33/100/122 32/102/123 31/104/124 30/112/125 29/114/126 28/115/127 27/113/128 26/111/129 25/103/130 24/101/131 23/99/132
f 48/73/133 47/74/134 46/137/135 45/136/136
f 46/37/137 50/36/138 49/124/139 45/125/140
f 47/62/141 51/61/142 50/77/143 46/78/144
f 52/126/145 51/38/146 47/39/147 48/127/148
f 49/75/149 52/59/150 48/60/151 45/76/152
f 50/42/153 51/43/154 52/2/155 49/1/156
f 56/41/157 55/68/158 54/67/159 53/40/160
f 55/165/161 59/166/162 58/119/163 54/118/164
f 57/66/165 60/98/166 56/97/167 53/65/168
f 58/167/169 59/168/170 60/72/171 57/71/172
f 57/9/173 53/34/174 54/35/175 64/29/176 61/28/177 62/13/178 63/14/179 64/29/180 54/35/181 58/10/182
f 55/33/183 68/27/184 67/12/185 66/11/186 65/26/187 68/27/188 55/33/189 56/32/190 60/5/191 59/6/192
f 71/163/193 72/164/194 70/106/195 69/105/196
f 72/70/197 74/153/198 73/152/199 70/69/200
f 74/96/201 76/95/202 75/63/203 73/64/204
f 76/8/205 71/7/206 69/30/207 75/31/208
